<svg width="20" height="20" viewBox="0 0 20 20" fill="none" xmlns="http://www.w3.org/2000/svg">
<path d="M8.52869 1.53274C9.3311 0.696826 10.6689 0.696826 11.4713 1.53274C11.9705 2.05273 12.7075 2.27048 13.4091 2.10488C14.5311 1.84003 15.6528 2.57675 15.8783 3.70735C16.0197 4.41599 16.524 5.00895 17.2041 5.25327C18.293 5.64449 18.8409 6.86949 18.4237 7.94873C18.1623 8.62473 18.2703 9.39809 18.7107 9.97375C19.4165 10.8965 19.2296 12.2235 18.2923 12.91C17.7084 13.3377 17.3907 14.05 17.4528 14.7712C17.5517 15.9207 16.6832 16.9447 15.5313 17.01C14.811 17.0508 14.1624 17.4736 13.8291 18.1135C13.2956 19.1375 12.0122 19.523 11.0099 18.9497C10.3842 18.5918 9.61582 18.5918 8.99013 18.9497C7.98778 19.523 6.70441 19.1375 6.17092 18.1135C5.83759 17.4736 5.18904 17.0508 4.46872 17.01C3.31683 16.9447 2.44827 15.9207 2.54721 14.7712C2.60927 14.05 2.29163 13.3377 1.70767 12.91C0.770363 12.2235 0.583454 10.8965 1.28932 9.97375C1.72966 9.39809 1.83766 8.62473 1.57634 7.94873C1.15913 6.86949 1.70698 5.64449 2.79591 5.25327C3.47596 5.00895 3.98031 4.41599 4.12167 3.70735C4.3472 2.57675 5.46891 1.84003 6.59095 2.10488C7.29247 2.27048 8.02953 2.05273 8.52869 1.53274Z" fill="url(#paint0_linear_402_60055)"/>
<path d="M12.5 12.123V15.559C12.5 15.6032 12.4883 15.6467 12.466 15.6849C12.4438 15.7231 12.4117 15.7547 12.3733 15.7765C12.3348 15.7983 12.2912 15.8095 12.247 15.809C12.2027 15.8085 12.1594 15.7962 12.1215 15.7735L10 14.5005L7.8785 15.7735C7.84052 15.7962 7.79718 15.8085 7.75291 15.809C7.70863 15.8095 7.66502 15.7983 7.62652 15.7764C7.58802 15.7545 7.55602 15.7228 7.53379 15.6845C7.51156 15.6463 7.4999 15.6028 7.5 15.5585V12.1235C6.85307 11.6055 6.383 10.8994 6.15473 10.1027C5.92646 9.30607 5.95128 8.45817 6.22575 7.67621C6.50021 6.89425 7.01078 6.21685 7.68689 5.73761C8.363 5.25838 9.17127 5.00098 10 5.00098C10.8287 5.00098 11.637 5.25838 12.3131 5.73761C12.9892 6.21685 13.4998 6.89425 13.7743 7.67621C14.0487 8.45817 14.0735 9.30607 13.8453 10.1027C13.617 10.8994 13.1469 11.6055 12.5 12.1235V12.123ZM10 12.0005C10.7956 12.0005 11.5587 11.6844 12.1213 11.1218C12.6839 10.5592 13 9.79612 13 9.00048C13 8.20483 12.6839 7.44176 12.1213 6.87916C11.5587 6.31655 10.7956 6.00048 10 6.00048C9.20435 6.00048 8.44129 6.31655 7.87868 6.87916C7.31607 7.44176 7 8.20483 7 9.00048C7 9.79612 7.31607 10.5592 7.87868 11.1218C8.44129 11.6844 9.20435 12.0005 10 12.0005ZM10 11.0005C9.46957 11.0005 8.96086 10.7898 8.58579 10.4147C8.21071 10.0396 8 9.53091 8 9.00048C8 8.47004 8.21071 7.96133 8.58579 7.58626C8.96086 7.21119 9.46957 7.00048 10 7.00048C10.5304 7.00048 11.0391 7.21119 11.4142 7.58626C11.7893 7.96133 12 8.47004 12 9.00048C12 9.53091 11.7893 10.0396 11.4142 10.4147C11.0391 10.7898 10.5304 11.0005 10 11.0005Z" fill="white"/>
<defs>
<linearGradient id="paint0_linear_402_60055" x1="3.5117" y1="1.87291" x2="14.4816" y2="19.1639" gradientUnits="userSpaceOnUse">
<stop stop-color="#D2E0ED"/>
<stop offset="0.109389" stop-color="#BFC8E7"/>
<stop offset="0.463563" stop-color="#CBCDFC"/>
<stop offset="0.739611" stop-color="#C3ADCB"/>
<stop offset="1" stop-color="#9699B5"/>
</linearGradient>
</defs>
</svg>
