<svg width="20" height="20" viewBox="0 0 20 20" fill="none" xmlns="http://www.w3.org/2000/svg">
<path d="M8.52869 1.53274C9.3311 0.696826 10.6689 0.696826 11.4713 1.53274C11.9705 2.05273 12.7075 2.27048 13.4091 2.10488C14.5311 1.84003 15.6528 2.57675 15.8783 3.70735C16.0197 4.41599 16.524 5.00895 17.2041 5.25327C18.293 5.64449 18.8409 6.86949 18.4237 7.94873C18.1623 8.62473 18.2703 9.39809 18.7107 9.97375C19.4165 10.8965 19.2296 12.2235 18.2923 12.91C17.7084 13.3377 17.3907 14.05 17.4528 14.7712C17.5517 15.9207 16.6832 16.9447 15.5313 17.01C14.811 17.0508 14.1624 17.4736 13.8291 18.1135C13.2956 19.1375 12.0122 19.523 11.0099 18.9497C10.3842 18.5918 9.61582 18.5918 8.99013 18.9497C7.98778 19.523 6.70441 19.1375 6.17092 18.1135C5.83759 17.4736 5.18904 17.0508 4.46872 17.01C3.31683 16.9447 2.44827 15.9207 2.54721 14.7712C2.60927 14.05 2.29163 13.3377 1.70767 12.91C0.770363 12.2235 0.583454 10.8965 1.28932 9.97375C1.72966 9.39809 1.83766 8.62473 1.57634 7.94873C1.15913 6.86949 1.70698 5.64449 2.79591 5.25327C3.47596 5.00895 3.98031 4.41599 4.12167 3.70735C4.3472 2.57675 5.46891 1.84003 6.59095 2.10488C7.29247 2.27048 8.02953 2.05273 8.52869 1.53274Z" fill="url(#paint0_linear_158_5342)"/>
<path d="M8.52869 1.53274C9.3311 0.696826 10.6689 0.696826 11.4713 1.53274C11.9705 2.05273 12.7075 2.27048 13.4091 2.10488C14.5311 1.84003 15.6528 2.57675 15.8783 3.70735C16.0197 4.41599 16.524 5.00895 17.2041 5.25327C18.293 5.64449 18.8409 6.86949 18.4237 7.94873C18.1623 8.62473 18.2703 9.39809 18.7107 9.97375C19.4165 10.8965 19.2296 12.2235 18.2923 12.91C17.7084 13.3377 17.3907 14.05 17.4528 14.7712C17.5517 15.9207 16.6832 16.9447 15.5313 17.01C14.811 17.0508 14.1624 17.4736 13.8291 18.1135C13.2956 19.1375 12.0122 19.523 11.0099 18.9497C10.3842 18.5918 9.61582 18.5918 8.99013 18.9497C7.98778 19.523 6.70441 19.1375 6.17092 18.1135C5.83759 17.4736 5.18904 17.0508 4.46872 17.01C3.31683 16.9447 2.44827 15.9207 2.54721 14.7712C2.60927 14.05 2.29163 13.3377 1.70767 12.91C0.770363 12.2235 0.583454 10.8965 1.28932 9.97375C1.72966 9.39809 1.83766 8.62473 1.57634 7.94873C1.15913 6.86949 1.70698 5.64449 2.79591 5.25327C3.47596 5.00895 3.98031 4.41599 4.12167 3.70735C4.3472 2.57675 5.46891 1.84003 6.59095 2.10488C7.29247 2.27048 8.02953 2.05273 8.52869 1.53274Z" fill="url(#paint1_linear_158_5342)" fill-opacity="0.1"/>
<path fill-rule="evenodd" clip-rule="evenodd" d="M7.03124 6.26584C6.71695 6.34251 6.42741 6.48823 5.74377 6.91364C5.17531 7.26739 4.72785 7.49335 4.59257 7.49497C4.56355 7.49534 4.5138 7.51211 4.48195 7.53227C4.33579 7.62471 4.90346 8.21372 5.33243 8.4147C5.64955 8.56328 6.07317 8.65444 6.45099 8.65539C7.18259 8.65718 7.99176 8.45599 8.42227 8.16518C8.64745 8.01311 8.65044 8.00838 8.63662 7.82798C8.58372 7.13889 8.24107 6.45301 7.85922 6.27198C7.70014 6.19655 7.32664 6.19377 7.03124 6.26584ZM12.1386 6.27314C11.9409 6.37554 11.7636 6.56943 11.6434 6.8146C11.5181 7.07031 11.3848 7.55335 11.3637 7.82798C11.3499 8.00838 11.3529 8.01311 11.5781 8.16518C12.0086 8.45599 12.8177 8.65718 13.5493 8.65539C13.9272 8.65444 14.3508 8.56328 14.6679 8.4147C15.0969 8.21372 15.6645 7.62471 15.5184 7.53227C15.4865 7.51211 15.4368 7.49534 15.4078 7.49497C15.2724 7.49335 14.8249 7.26735 14.2563 6.91339C13.9137 6.70013 13.5213 6.47512 13.3843 6.41342C12.9308 6.20908 12.3817 6.14726 12.1386 6.27314ZM9.73973 6.47064C9.36834 6.58607 9.12817 6.91468 9.12817 7.30731C9.12817 7.59608 9.19889 7.76877 9.39147 7.95029L9.54183 8.09199L9.553 8.98604L9.56417 9.88009L9.89635 9.96672C10.0791 10.0144 10.2799 10.066 10.3427 10.0816L10.4569 10.1099V9.10068V8.09149L10.6072 7.94851C10.8017 7.76342 10.8722 7.59306 10.8722 7.30731C10.8722 6.90244 10.6084 6.55698 10.2259 6.46072C10.0091 6.4062 9.94274 6.40753 9.73973 6.47064ZM8.44316 8.72145C8.21632 8.83961 7.87782 9.12503 7.76135 9.29631C7.28731 9.99336 7.61174 10.6316 8.60498 10.956C8.6813 10.9809 8.68105 10.9847 8.59734 11.074C8.38154 11.3042 8.36024 11.6699 8.54755 11.9283C8.66863 12.0953 9.13544 12.4733 9.2206 12.4733C9.24361 12.4733 9.19303 12.55 9.1082 12.6438C9.02341 12.7376 8.92778 12.8771 8.89576 12.9537C8.82177 13.1306 8.82102 13.4323 8.89414 13.6072C8.95531 13.7534 9.16708 13.9522 9.32599 14.0126L9.42473 14.0501L9.3411 14.1564C9.2206 14.3094 9.1574 14.5316 9.18801 14.6945C9.21907 14.8601 9.37989 15.0649 9.54623 15.1509C9.6615 15.2105 9.66262 15.2144 9.60357 15.3555C9.52094 15.5532 9.52538 15.5594 9.67146 15.4515C9.84619 15.3224 10.1526 15.3213 10.3257 15.4491L10.4505 15.5413L10.4134 15.4123C10.3585 15.2208 10.2602 15.1326 9.93725 14.985C9.65789 14.8573 9.5434 14.7378 9.5434 14.5739C9.5434 14.4981 9.70684 14.3549 9.87298 14.2852C10.0365 14.2164 10.2088 14.255 10.3635 14.3949C10.4785 14.4988 10.4829 14.6438 10.3755 14.7945L10.294 14.9088L10.4167 15.0263L10.5394 15.1437L10.6488 15.0429C10.7822 14.92 10.8722 14.7194 10.8722 14.5451C10.8722 14.2077 10.5992 13.9543 10.0624 13.7934C9.54336 13.6377 9.33579 13.4903 9.33579 13.2774C9.33579 13.159 9.56716 12.9592 9.81306 12.8653C10.002 12.7933 10.016 12.7934 10.243 12.8691C10.3743 12.9128 10.5385 13.007 10.6157 13.0827C10.7657 13.2297 10.7674 13.3099 10.625 13.5119L10.5509 13.6169L10.7531 13.7297C10.8643 13.7917 10.9723 13.8425 10.993 13.8425C11.0742 13.8425 11.2043 13.4826 11.2043 13.2581C11.2043 12.8274 10.9327 12.5937 9.92488 12.1572C9.59556 12.0145 9.28077 11.8552 9.22525 11.8031C8.93637 11.5319 9.39865 11.2054 10.0624 11.2117C10.4116 11.215 10.7851 11.3178 10.9434 11.4541L11.059 11.5537L10.9744 11.6712C10.9279 11.7358 10.7925 11.8354 10.6735 11.8924C10.5545 11.9495 10.4572 12.0064 10.4571 12.019C10.457 12.0316 10.5363 12.0821 10.6334 12.1314C10.7305 12.1806 10.8597 12.2531 10.9207 12.2924C11.0286 12.3621 11.0352 12.361 11.1837 12.2478C11.6105 11.9225 11.6782 11.3882 11.3371 11.0373C11.0692 10.7616 10.6505 10.6207 9.37731 10.3779C8.73445 10.2552 8.47596 10.1505 8.43747 9.99717C8.40575 9.87088 8.51504 9.70856 8.7119 9.58965C8.99438 9.419 9.08673 9.29938 9.08573 9.10532C9.08387 8.74663 8.76289 8.55486 8.44316 8.72145ZM11.1421 8.70427C10.9933 8.78601 10.9155 8.92007 10.9146 9.09653C10.9135 9.30606 11.0194 9.45265 11.2347 9.53928C11.6467 9.70508 11.672 9.95514 11.2984 10.1705C11.1797 10.239 11.082 10.3043 11.0813 10.3157C11.0806 10.3272 11.1663 10.3719 11.2716 10.4152C11.377 10.4585 11.5483 10.5589 11.6524 10.6383C11.8326 10.7757 11.8467 10.7796 11.9486 10.7194C12.202 10.5698 12.4504 10.0935 12.4498 9.75843C12.4491 9.36651 12.2014 9.03554 11.7337 8.80173C11.4315 8.65071 11.2838 8.62635 11.1421 8.70427Z" fill="white"/>
<defs>
<linearGradient id="paint0_linear_158_5342" x1="12.8777" y1="20" x2="6.56992" y2="2.21118" gradientUnits="userSpaceOnUse">
<stop offset="0.0625" stop-color="#87704F"/>
<stop offset="1" stop-color="#CBC6C5"/>
</linearGradient>
<linearGradient id="paint1_linear_158_5342" x1="-3.43469" y1="-1.5625" x2="11.758" y2="25.5551" gradientUnits="userSpaceOnUse">
<stop stop-color="white"/>
<stop offset="1" stop-color="white" stop-opacity="0"/>
</linearGradient>
</defs>
</svg>
