<svg width="15" height="13" viewBox="0 0 15 13" fill="none" xmlns="http://www.w3.org/2000/svg">
<path d="M12.5278 2.83404C12.3061 2.4667 12.0464 2.12471 11.7551 1.81437L11.7994 1.77004C12.0464 1.52304 12.4454 1.52304 12.6924 1.77004C12.9394 2.01704 12.9394 2.42237 12.6924 2.66937L12.5278 2.83404ZM9.9691 5.96903C10.4061 5.96903 10.7608 5.61437 10.7608 5.17737C10.7608 4.74037 10.4061 4.3857 9.9691 4.3857C9.5321 4.3857 9.17743 4.74037 9.17743 5.17737C9.17743 5.61437 9.52577 5.96903 9.9691 5.96903ZM4.95311 10.795C3.09111 9.69303 2.05244 8.08436 2.05244 6.12737C2.05244 4.62003 2.71111 3.2647 3.75611 2.33371C4.23111 1.91571 4.9531 1.82071 5.7321 2.01071L6.06777 2.09304C6.75177 2.2577 7.46743 2.2577 8.15777 2.09304L8.49343 2.01071C9.27877 1.82071 10.0008 1.91571 10.4758 2.33371C11.5208 3.2647 12.1794 4.62003 12.1794 6.12737C12.1794 8.08436 11.1408 9.69303 9.27877 10.795L9.23443 10.738C10.0008 10.016 10.0768 9.68036 9.99443 8.91403L9.82977 7.32437C9.69043 5.9247 8.51877 4.8607 7.11277 4.8607C5.70677 4.8607 4.53511 5.9247 4.39577 7.32437L4.23111 8.91403C4.14877 9.68036 4.22477 10.016 4.99111 10.738L4.95311 10.795ZM1.69144 2.85937L1.49511 2.66937C1.24178 2.42237 1.24178 2.01704 1.49511 1.77004C1.74844 1.52304 2.14111 1.52304 2.38811 1.77004L2.45777 1.83971C2.17278 2.15004 1.90678 2.49204 1.69144 2.85937ZM7.1191 8.81903C7.5561 8.81903 7.91077 8.46436 7.91077 8.02736C7.91077 7.59037 7.5561 7.2357 7.1191 7.2357C6.6821 7.2357 6.32744 7.59037 6.32744 8.02736C6.32744 8.46436 6.67577 8.81903 7.1191 8.81903ZM4.26911 5.96903C4.70611 5.96903 5.06077 5.61437 5.06077 5.17737C5.06077 4.74037 4.69977 4.3857 4.26911 4.3857C3.83844 4.3857 3.47744 4.74037 3.47744 5.17737C3.47744 5.61437 3.83211 5.96903 4.26911 5.96903ZM7.1191 11.194C5.85244 11.194 5.32677 10.795 5.42177 9.8007L5.66244 7.4447C5.7321 6.69737 6.36544 6.12737 7.1191 6.12737C7.87277 6.12737 8.49977 6.69737 8.57577 7.4447L8.8101 9.8007C8.91143 10.7824 8.4111 11.194 7.1191 11.194ZM7.1191 12.4607C10.6278 12.4607 13.4524 9.61703 13.4524 6.12737C13.4524 5.39903 13.3321 4.70237 13.1041 4.05004L13.5918 3.56237C14.3328 2.82137 14.3328 1.61804 13.5918 0.877038C12.8508 0.136039 11.6474 0.136039 10.9001 0.877038L10.7734 1.01004C9.96276 0.579372 9.01277 0.585706 8.2021 0.782039L7.86643 0.864372C7.37244 0.978372 6.86577 0.978372 6.37177 0.864372L6.0361 0.782039C5.21277 0.579372 4.25011 0.579372 3.43311 1.02271L3.28111 0.877038C2.54011 0.136039 1.33678 0.136039 0.595778 0.877038C-0.151555 1.61804 -0.151555 2.82137 0.595778 3.56237L1.11511 4.0817C0.899777 4.7277 0.779444 5.4117 0.779444 6.12737C0.779444 9.60436 3.59144 12.4607 7.1191 12.4607Z" fill="#00638D"/>
</svg>
