<svg width="10" height="14" viewBox="0 0 10 14" fill="none" xmlns="http://www.w3.org/2000/svg">
<path d="M6.33428 1.41196C6.33428 2.19178 5.65097 2.82402 4.80815 2.82402C3.96533 2.82402 3.28212 2.19178 3.28212 1.41196C3.28212 0.632236 3.96529 0 4.80815 0C5.65097 0 6.33428 0.632236 6.33428 1.41196Z" fill="#00638D"/>
<path d="M9.54158 5.52831C8.94662 5.31297 8.40345 5.02573 7.88622 4.69071C7.42063 4.37958 7.00679 4.02055 6.61876 3.61377C6.4636 3.4462 6.2567 3.37443 6.0238 3.37443H4.05799C3.85107 3.35054 3.66995 3.35054 3.46303 3.37443C2.14393 3.51798 1.36789 4.54715 0.954048 5.12151C0.540208 5.69587 0.229757 6.34202 0.0228372 7.03605C-0.0806893 7.41895 0.177993 7.77799 0.591816 7.87365C0.643581 7.87365 0.721157 7.89753 0.772922 7.89753C1.10918 7.89753 1.41949 7.6822 1.49721 7.37108C1.65237 6.84464 1.88525 6.34203 2.19556 5.91124C2.40248 5.624 2.71293 5.21722 3.07499 4.97785C3.15257 6.15058 3.15257 7.32317 3.04917 8.47176L3.02336 8.85467L2.76468 9.81194C2.58357 10.4342 2.2215 10.9847 1.70413 11.4153L0.876453 12.0855C0.566006 12.3487 0.540192 12.7795 0.798873 13.0667C1.08337 13.354 1.54897 13.3779 1.85942 13.1385L2.6871 12.4684C3.43719 11.8461 3.98037 11.0564 4.21313 10.1469L4.34247 9.66823H5.35126L5.68752 10.7213C5.81687 11.1042 5.86863 11.4871 5.86863 11.894V13.306C5.86863 13.6889 6.20489 14 6.61872 14C7.03256 14 7.36882 13.6889 7.36882 13.306V11.894C7.36882 11.3676 7.29124 10.841 7.13609 10.3384L6.6705 8.85453L6.59292 7.37069C6.56711 6.77245 6.56711 6.17409 6.59292 5.55182C6.72226 5.6476 6.82565 5.71939 6.95498 5.81505C7.57574 6.22183 8.24825 6.58086 8.94659 6.82019C9.02417 6.84408 9.1277 6.86809 9.23109 6.86809C9.54154 6.86809 9.82605 6.70052 9.92944 6.4134C10.1105 6.0785 9.92944 5.67172 9.54154 5.52817L9.54158 5.52831Z" fill="#00638D"/>
</svg>
