<svg width="20" height="20" viewBox="0 0 20 20" fill="none" xmlns="http://www.w3.org/2000/svg">
<path fill-rule="evenodd" clip-rule="evenodd" d="M2.57885 1.60325C3.75037 0.431728 5.64954 0.431728 6.82106 1.60325L7.99506 2.77725C9.00701 3.7892 8.93519 5.37233 7.91006 6.39747L7.20817 7.0985C7.74273 8.2555 8.52823 9.40243 9.56306 10.4373C10.598 11.4722 11.7449 12.2586 12.9019 12.7941L13.6872 12.0079C14.6633 11.0304 16.2469 11.0311 17.2231 12.0073L18.3961 13.1803C19.5676 14.3518 19.5676 16.2509 18.3961 17.4225L17.7451 18.0735C16.7564 19.0622 15.3474 19.4565 13.9825 19.199C11.1453 18.6626 8.10849 17.0331 5.53785 14.4625C2.9672 11.8918 1.33774 8.85532 0.801358 6.01812C0.543846 4.65331 0.938158 3.24394 1.92685 2.25525L2.57885 1.60325ZM3.99306 3.01747C4.38354 2.62699 5.01637 2.62699 5.40685 3.01747L6.58085 4.19147L6.71719 4.52855L6.49604 4.98306L5.67728 5.80082C5.19041 6.28768 5.00026 7.05256 5.30295 7.73881C5.93998 9.18344 6.8934 10.596 8.14885 11.8515C9.40414 13.1068 10.8166 14.0612 12.2612 14.6992C12.9476 15.0021 13.7125 14.812 14.1995 14.3251L15.1027 13.4209C15.2967 13.2265 15.613 13.2257 15.8088 13.4215L16.9818 14.5945C17.3723 14.9849 17.3723 15.6178 16.9818 16.0083L16.3308 16.6593C15.8376 17.1525 15.1088 17.3761 14.3537 17.2338C11.9649 16.7822 9.27941 15.3756 6.95206 13.0483C4.62482 10.721 3.21823 8.03531 2.76655 5.6466C2.6242 4.89154 2.84783 4.1627 3.34106 3.66947L3.99306 3.01747Z" fill="#2B2D33"/>
</svg>
