<svg width="16" height="16" viewBox="0 0 16 16" fill="none" xmlns="http://www.w3.org/2000/svg">
<path fill-rule="evenodd" clip-rule="evenodd" d="M9.17842 0.571461C8.52768 -0.07928 7.47221 -0.0804783 6.82116 0.571878L1.23241 6.16063C0.763807 6.62923 0.5 7.26529 0.5 7.92822V15.0832C0.5 15.5435 0.873096 15.9165 1.33333 15.9165H5.91667C6.3769 15.9165 6.75 15.5435 6.75 15.0832V11.3332C6.75 10.6426 7.3094 10.0832 8 10.0832C8.6906 10.0832 9.25 10.6426 9.25 11.3332V15.0832C9.25 15.5435 9.6231 15.9165 10.0833 15.9165H14.6667C15.1269 15.9165 15.5 15.5435 15.5 15.0832V7.92822C15.5 7.26529 15.2362 6.62923 14.7676 6.16063L9.17842 0.571461ZM13.8333 14.2499V7.92822C13.8333 7.70781 13.7455 7.49553 13.5891 7.33914L8.00009 1.74997L2.41092 7.33914C2.25453 7.49553 2.16667 7.70781 2.16667 7.92822V14.2499H5.08333V11.3332C5.08333 9.72215 6.38893 8.41655 8 8.41655C9.61107 8.41655 10.9167 9.72215 10.9167 11.3332V14.2499H13.8333Z" fill="#808185"/>
</svg>
