<svg width="22" height="22" viewBox="0 0 22 22" fill="none" xmlns="http://www.w3.org/2000/svg">
<path fill-rule="evenodd" clip-rule="evenodd" d="M10.9998 2.99609C6.57949 2.99609 2.99609 6.57949 2.99609 10.9998C2.99609 15.4202 6.57949 19.0036 10.9998 19.0036C15.4202 19.0036 19.0036 15.4202 19.0036 10.9998C19.0036 6.57949 15.4202 2.99609 10.9998 2.99609ZM0.996094 10.9998C0.996094 5.47493 5.47493 0.996094 10.9998 0.996094C16.5248 0.996094 21.0036 5.47493 21.0036 10.9998C21.0036 16.5248 16.5248 21.0036 10.9998 21.0036C5.47493 21.0036 0.996094 16.5248 0.996094 10.9998Z" fill="#2B2D33"/>
<path fill-rule="evenodd" clip-rule="evenodd" d="M9.00843 10.2495C9.00843 9.69725 9.45615 9.24953 10.0084 9.24953H11.1589C11.7112 9.24953 12.1589 9.69725 12.1589 10.2495V13.5013H12.3097C12.862 13.5013 13.3097 13.949 13.3097 14.5013C13.3097 15.0536 12.862 15.5013 12.3097 15.5013H9.99943C9.44714 15.5013 8.99943 15.0536 8.99943 14.5013C8.99943 13.949 9.44714 13.5013 9.99943 13.5013H10.1589V11.2495H10.0084C9.45615 11.2495 9.00843 10.8018 9.00843 10.2495Z" fill="#2B2D33"/>
<path fill-rule="evenodd" clip-rule="evenodd" d="M9.59968 7.24554C9.59968 6.55513 10.1594 5.99544 10.8498 5.99544C11.5402 5.99544 12.0999 6.55513 12.0999 7.24554C12.0999 7.93595 11.5402 8.49564 10.8498 8.49564C10.1594 8.49564 9.59968 7.93595 9.59968 7.24554Z" fill="#2B2D33"/>
</svg>
