<svg width="14" height="26" viewBox="0 0 14 26" fill="none" xmlns="http://www.w3.org/2000/svg">
<path d="M8.51771 10.8849C7.3572 9.25902 7.65844 7.20962 8.12214 5.46403C8.63251 3.54233 9.93674 1.51075 11.7818 0.25C12.0693 2.09501 11.5607 3.97799 11.0585 5.75757C10.5598 7.52546 9.79941 9.41434 8.51771 10.8849Z" fill="#FC9696"/>
<path d="M6.88627 12.8434C5.0687 12.0147 4.30583 10.0889 3.83545 8.34511C3.31753 6.42543 3.43242 4.01397 4.40092 2.00006C5.57166 3.45473 6.07178 5.33998 6.52576 7.13246C6.97695 8.91308 7.26191 10.9292 6.88627 12.8434Z" fill="#FC9696"/>
<path d="M8.75058 17.13C6.80475 17.5817 5.02572 16.5206 3.5895 15.4255C2.00835 14.2199 0.628814 12.2387 0.168222 10.052C1.98317 10.4909 3.52922 11.68 4.98214 12.8238C6.42559 13.9598 7.88094 15.3839 8.75058 17.13Z" fill="#FC9696"/>
<path d="M10.6965 20.6109C9.09355 21.8029 7.03868 21.5417 5.28438 21.1121C3.3531 20.6393 1.29648 19.3749 0 17.5548C1.83906 17.2314 3.7316 17.7032 5.52063 18.1706C7.2979 18.6348 9.20124 19.3582 10.6965 20.6109Z" fill="#FC9696"/>
<path d="M13.9166 21.48C13.2847 23.375 11.4503 24.3372 9.76601 24.9893C7.91184 25.7072 5.50174 25.8479 3.39673 25.0978C4.71948 23.7798 6.5413 23.0832 8.27575 22.4422C9.99869 21.8054 11.9734 21.3088 13.9166 21.48Z" fill="#FC9696"/>
</svg>
