<svg width="14" height="26" viewBox="0 0 14 26" fill="none" xmlns="http://www.w3.org/2000/svg">
<path d="M5.48229 10.8849C6.6428 9.25902 6.34156 7.20962 5.87786 5.46403C5.36749 3.54233 4.06326 1.51075 2.21817 0.25C1.93072 2.09501 2.43931 3.97799 2.94152 5.75757C3.44023 7.52546 4.20059 9.41434 5.48229 10.8849Z" fill="#FC9696"/>
<path d="M7.11373 12.8434C8.9313 12.0147 9.69417 10.0889 10.1645 8.34511C10.6825 6.42543 10.5676 4.01397 9.59908 2.00006C8.42834 3.45473 7.92822 5.33998 7.47424 7.13246C7.02305 8.91308 6.73809 10.9292 7.11373 12.8434Z" fill="#FC9696"/>
<path d="M5.24942 17.13C7.19525 17.5817 8.97428 16.5206 10.4105 15.4255C11.9917 14.2199 13.3712 12.2387 13.8318 10.052C12.0168 10.4909 10.4708 11.68 9.01786 12.8238C7.57441 13.9598 6.11906 15.3839 5.24942 17.13Z" fill="#FC9696"/>
<path d="M3.3035 20.6109C4.90645 21.8029 6.96132 21.5417 8.71562 21.1121C10.6469 20.6393 12.7035 19.3749 14 17.5548C12.1609 17.2314 10.2684 17.7032 8.47937 18.1706C6.7021 18.6348 4.79876 19.3582 3.3035 20.6109Z" fill="#FC9696"/>
<path d="M0.083416 21.48C0.715307 23.375 2.54968 24.3372 4.23399 24.9893C6.08816 25.7072 8.49826 25.8479 10.6033 25.0978C9.28052 23.7798 7.4587 23.0832 5.72425 22.4422C4.00131 21.8054 2.0266 21.3088 0.083416 21.48Z" fill="#FC9696"/>
</svg>
