<svg width="23" height="9" viewBox="0 0 23 9" fill="none" xmlns="http://www.w3.org/2000/svg">
<path d="M0.354547 0.516H3.29455C4.23055 0.516 4.96255 0.748 5.49055 1.212C6.01855 1.668 6.28255 2.376 6.28255 3.336C6.28255 3.824 6.19455 4.252 6.01855 4.62C5.85055 4.988 5.61455 5.292 5.31055 5.532C5.05455 5.74 4.73455 5.904 4.35055 6.024C3.96655 6.144 3.54255 6.204 3.07855 6.204H1.39855V9H0.354547V0.516ZM3.03055 5.256C3.33455 5.256 3.63055 5.22 3.91855 5.148C4.20655 5.068 4.44255 4.944 4.62655 4.776C4.81055 4.616 4.95455 4.42 5.05855 4.188C5.16255 3.956 5.21455 3.656 5.21455 3.288C5.21455 2.072 4.55855 1.464 3.24655 1.464H1.39855V5.256H3.03055ZM7.91314 0.516H10.9251C11.5811 0.516 12.1571 0.62 12.6531 0.827999C13.1571 1.028 13.5771 1.316 13.9131 1.692C14.2491 2.06 14.5011 2.508 14.6691 3.036C14.8371 3.556 14.9211 4.132 14.9211 4.764C14.9131 5.396 14.8251 5.972 14.6571 6.492C14.4891 7.012 14.2371 7.46 13.9011 7.836C13.5731 8.204 13.1611 8.492 12.6651 8.7C12.1691 8.9 11.5891 9 10.9251 9H7.91314V0.516ZM8.95714 1.464V8.052H10.8531C11.2851 8.052 11.6971 7.988 12.0891 7.86C12.4891 7.724 12.8291 7.488 13.1091 7.152C13.3651 6.856 13.5531 6.508 13.6731 6.108C13.7931 5.7 13.8531 5.252 13.8531 4.764C13.8531 4.26 13.7931 3.812 13.6731 3.42C13.5531 3.028 13.3731 2.688 13.1331 2.4C12.8931 2.112 12.5891 1.884 12.2211 1.716C11.8531 1.548 11.4171 1.464 10.9131 1.464H8.95714ZM16.5499 9V0.516H22.2499V1.464H17.5939V4.644H21.6619V5.604H17.5939V9H16.5499Z" fill="#2B2D33"/>
</svg>
