<svg width="40" height="40" viewBox="0 0 40 40" fill="none" xmlns="http://www.w3.org/2000/svg">
<path fill-rule="evenodd" clip-rule="evenodd" d="M15.3579 10.128C13.9827 9.69638 12.5061 9.71072 11.1395 10.1689C9.77292 10.6272 8.58619 11.5058 7.74907 12.6792C6.91195 13.8525 6.46731 15.2606 6.47873 16.7019C6.4853 17.5303 5.81907 18.2072 4.99066 18.2138C4.16226 18.2203 3.48539 17.5541 3.47882 16.7257C3.46239 14.6516 4.10224 12.6254 5.30688 10.9368C6.51151 9.24832 8.21924 7.98395 10.1858 7.32456C12.1524 6.66518 14.2772 6.64454 16.2562 7.26561C17.6602 7.70622 18.9399 8.45379 20.0067 9.44548C20.5576 8.93916 21.1659 8.49604 21.8206 8.12582C22.9985 7.45968 24.3013 7.04384 25.6474 6.90435C26.9934 6.76486 28.3538 6.9047 29.6433 7.31513C30.9329 7.72556 32.1238 8.39774 33.1416 9.28961C34.1594 10.1815 34.9822 11.2738 35.5584 12.4983C36.1346 13.7227 36.4519 15.053 36.4904 16.4057C36.5288 17.7584 36.2877 19.1045 35.782 20.3598C35.2763 21.615 34.517 22.7523 33.5515 23.7006C33.5177 23.7339 33.4827 23.7652 33.4466 23.7945L21.056 36.0663C20.4714 36.6452 19.5295 36.6452 18.9449 36.0663L14.1183 31.2863C13.5297 30.7034 13.525 29.7536 14.108 29.165C14.6909 28.5764 15.6406 28.5718 16.2293 29.1547L20.0004 32.8894L31.4449 21.5547C31.478 21.5219 31.5123 21.491 31.5475 21.4619C32.1719 20.8232 32.6652 20.068 32.9993 19.2387C33.3507 18.3665 33.5183 17.431 33.4916 16.491C33.4648 15.551 33.2443 14.6266 32.8439 13.7757C32.4435 12.9248 31.8717 12.1657 31.1645 11.5459C30.4572 10.9262 29.6296 10.459 28.7335 10.1738C27.8374 9.88861 26.892 9.79143 25.9566 9.88837C25.0212 9.98531 24.1159 10.2743 23.2973 10.7372C22.4787 11.2001 21.7645 11.827 21.1993 12.5786C20.9151 12.9567 20.4692 13.1785 19.9962 13.1772C19.5233 13.1758 19.0786 12.9515 18.7965 12.5719C17.9367 11.415 16.7332 10.5596 15.3579 10.128ZM15.0004 15.1672C15.6461 15.1672 16.2193 15.5803 16.4235 16.1928L17.7482 20.1672H21.6671C22.4955 20.1672 23.1671 20.8387 23.1671 21.6672C23.1671 22.4956 22.4955 23.1672 21.6671 23.1672H16.6671C16.0215 23.1672 15.4483 22.754 15.2441 22.1415L15.0004 21.4106L13.0901 27.1415C12.909 27.685 12.434 28.0778 11.8662 28.1539C11.2984 28.2299 10.7368 27.9759 10.419 27.4992L7.531 23.1672H5.00044C4.17202 23.1672 3.50044 22.4956 3.50044 21.6672C3.50044 20.8387 4.17202 20.1672 5.00044 20.1672H8.33378C8.83531 20.1672 9.30365 20.4178 9.58185 20.8351L11.2139 23.2832L13.5774 16.1928C13.7816 15.5803 14.3548 15.1672 15.0004 15.1672Z" fill="url(#paint0_radial_426_75706)"/>
<defs>
<radialGradient id="paint0_radial_426_75706" cx="0" cy="0" r="1" gradientUnits="userSpaceOnUse" gradientTransform="translate(2.96418 10.9766) rotate(37.3069) scale(38.1512 37.2888)">
<stop stop-color="#FF1249"/>
<stop offset="1" stop-color="#D30535"/>
</radialGradient>
</defs>
</svg>
