<svg width="34" height="34" viewBox="0 0 34 34" fill="none" xmlns="http://www.w3.org/2000/svg">
<path fill-rule="evenodd" clip-rule="evenodd" d="M16.0061 0.876568C16.5736 0.374477 17.4265 0.374477 17.994 0.876568C21.5951 4.06254 26.295 5.72136 31.0981 5.50157C31.7884 5.46998 32.4109 5.91402 32.6058 6.57695C33.4185 9.34152 33.6672 12.2412 33.337 15.1038C33.0069 17.9664 32.1047 20.7334 30.6841 23.2404C29.2635 25.7474 27.3534 27.9433 25.0673 29.6975C22.7813 31.4517 20.1659 32.7285 17.3767 33.452C17.1297 33.516 16.8704 33.516 16.6234 33.452C13.8342 32.7285 11.2188 31.4517 8.93279 29.6975C6.64674 27.9433 4.73665 25.7474 3.31601 23.2404C1.89537 20.7334 0.993181 17.9664 0.663052 15.1038C0.332922 12.2412 0.581589 9.34152 1.39428 6.57695C1.58915 5.91402 2.21169 5.46998 2.90195 5.50157C7.70506 5.72136 12.405 4.06254 16.0061 0.876568ZM3.98632 8.51961C3.5195 10.5626 3.40258 12.6728 3.6433 14.7601C3.92736 17.2233 4.70367 19.6042 5.92608 21.7614C7.14848 23.9186 8.79206 25.808 10.7591 27.3175C12.623 28.7477 14.7412 29.8091 17 30.4461C19.2589 29.8091 21.3771 28.7477 23.241 27.3175C25.208 25.808 26.8516 23.9186 28.074 21.7614C29.2964 19.6042 30.0727 17.2233 30.3568 14.7601C30.5975 12.6728 30.4806 10.5626 30.0138 8.51961C25.2918 8.46735 20.7174 6.86097 17 3.9509C13.2827 6.86097 8.70828 8.46735 3.98632 8.51961ZM23.0607 12.606C23.6465 13.1918 23.6465 14.1415 23.0607 14.7273L16.394 21.394C15.8083 21.9798 14.8585 21.9798 14.2727 21.394L10.9394 18.0607C10.3536 17.4749 10.3536 16.5251 10.9394 15.9393C11.5252 15.3536 12.4749 15.3536 13.0607 15.9393L15.3334 18.212L20.9394 12.606C21.5252 12.0202 22.4749 12.0202 23.0607 12.606Z" fill="url(#paint0_radial_402_75695)"/>
<defs>
<radialGradient id="paint0_radial_402_75695" cx="0" cy="0" r="1" gradientUnits="userSpaceOnUse" gradientTransform="translate(0.00806712 5.12674) rotate(40.3165) scale(39.7276 39.736)">
<stop stop-color="#FF1249"/>
<stop offset="1" stop-color="#D30535"/>
</radialGradient>
</defs>
</svg>
