<svg width="40" height="40" viewBox="0 0 40 40" fill="none" xmlns="http://www.w3.org/2000/svg">
<path fill-rule="evenodd" clip-rule="evenodd" d="M11.6667 3.5C12.4951 3.5 13.1667 4.17157 13.1667 5V6.83333H23.5V5C23.5 4.17157 24.1716 3.5 25 3.5C25.8284 3.5 26.5 4.17157 26.5 5V6.83333H28.3333C29.6152 6.83333 30.8446 7.34256 31.751 8.24898C32.6574 9.15541 33.1667 10.3848 33.1667 11.6667V18.3333C33.1667 19.1618 32.4951 19.8333 31.6667 19.8333L6.5 19.8333V31.6667C6.5 32.1529 6.69315 32.6192 7.03697 32.963C7.38079 33.3068 7.84711 33.5 8.33333 33.5H19.6583C20.4868 33.5 21.1583 34.1716 21.1583 35C21.1583 35.8284 20.4868 36.5 19.6583 36.5H8.33333C7.05145 36.5 5.82207 35.9908 4.91565 35.0843C4.00922 34.1779 3.5 32.9485 3.5 31.6667V11.6667C3.5 10.3848 4.00922 9.15541 4.91565 8.24898C5.82208 7.34256 7.05145 6.83333 8.33333 6.83333H10.1667V5C10.1667 4.17157 10.8382 3.5 11.6667 3.5ZM10.1667 9.83333H8.33333C7.8471 9.83333 7.38079 10.0265 7.03697 10.3703C6.69315 10.7141 6.5 11.1804 6.5 11.6667V16.8333L30.1667 16.8333V11.6667C30.1667 11.1804 29.9735 10.7141 29.6297 10.3703C29.2859 10.0265 28.8196 9.83333 28.3333 9.83333H26.5V11.6667C26.5 12.4951 25.8284 13.1667 25 13.1667C24.1716 13.1667 23.5 12.4951 23.5 11.6667V9.83333H13.1667V11.6667C13.1667 12.4951 12.4951 13.1667 11.6667 13.1667C10.8382 13.1667 10.1667 12.4951 10.1667 11.6667V9.83333ZM30 24.8333C27.1465 24.8333 24.8333 27.1465 24.8333 30C24.8333 32.8535 27.1465 35.1667 30 35.1667C32.8535 35.1667 35.1667 32.8535 35.1667 30C35.1667 27.1465 32.8535 24.8333 30 24.8333ZM21.8333 30C21.8333 25.4897 25.4897 21.8333 30 21.8333C34.5103 21.8333 38.1667 25.4897 38.1667 30C38.1667 34.5103 34.5103 38.1667 30 38.1667C25.4897 38.1667 21.8333 34.5103 21.8333 30ZM30 25.9933C30.8284 25.9933 31.5 26.6649 31.5 27.4933V29.3787L32.7273 30.606C33.3131 31.1918 33.3131 32.1415 32.7273 32.7273C32.1415 33.3131 31.1918 33.3131 30.606 32.7273L28.9393 31.0607C28.658 30.7794 28.5 30.3978 28.5 30V27.4933C28.5 26.6649 29.1716 25.9933 30 25.9933Z" fill="url(#paint0_radial_426_75712)"/>
<defs>
<radialGradient id="paint0_radial_426_75712" cx="0" cy="0" r="1" gradientUnits="userSpaceOnUse" gradientTransform="translate(2.95995 8.36042) rotate(40.2798) scale(41.7656 41.7656)">
<stop stop-color="#FF1249"/>
<stop offset="1" stop-color="#D30535"/>
</radialGradient>
</defs>
</svg>
