<svg width="87" height="24" viewBox="0 0 87 24" fill="none" xmlns="http://www.w3.org/2000/svg">
<path fill-rule="evenodd" clip-rule="evenodd" d="M12.3039 24C18.7961 24 24.1078 18.624 24.1078 12C24.1078 5.376 18.7961 0 12.3039 0C5.78816 0 0.5 5.376 0.5 12C0.5 18.624 5.78816 24 12.3039 24Z" fill="#299400"/>
<path fill-rule="evenodd" clip-rule="evenodd" d="M12.304 3.75C16.3616 3.75 19.1159 6.925 19.1159 10.35C19.1159 11.725 18.8208 12.925 18.1322 14.425C14.0992 14.425 13.3615 17.15 13.1893 18.975L13.0664 20.25H11.5417L11.4187 18.975C11.2466 17.15 10.5089 14.425 6.47585 14.425C5.78729 12.925 5.49219 11.725 5.49219 10.35C5.49219 6.925 8.24644 3.75 12.304 3.75V3.75Z" fill="white"/>
<path fill-rule="evenodd" clip-rule="evenodd" d="M34.732 3.75C30.8957 3.75 28.0185 6.125 28.0431 10.25H31.6089C31.5597 8.6 32.5926 7 34.732 7C36.3551 7 37.3879 8.1 37.3879 9.5C37.3879 10.95 36.2567 11.75 34.4369 12.65C32.0515 13.825 30.6252 14.375 28.0431 15.25V20H40.8307V16.75H32.8631C34.0956 16.228 35.2956 15.654 36.3796 15.125C39.2568 13.725 40.9537 12.15 40.9537 9.325C40.9537 5.925 38.4453 3.75 34.732 3.75V3.75ZM46.4867 7.25H53.8642V4H43.0439V20H46.4867V7.25ZM59.0284 4H55.5856V20H59.0038L65.4222 9.775V20H68.865V4H65.4222L59.0284 14.225V4ZM86.1528 14H82.5871C82.0461 15.775 80.3984 17 78.4557 17C75.6277 17 73.7833 14.525 73.7833 12C73.7833 9.475 75.5785 7 78.5541 7C80.5214 7 82.0461 8.225 82.5871 10H86.1528C85.6364 6.425 82.8576 3.75 78.4557 3.75C73.5866 3.75 70.3405 7.225 70.3405 12C70.3405 16.775 73.5866 20.25 78.4557 20.25C82.8576 20.25 85.6364 17.625 86.1528 14Z" fill="#262626"/>
</svg>
