<svg width="154" height="14" viewBox="0 0 154 14" fill="none" xmlns="http://www.w3.org/2000/svg">
<path fill-rule="evenodd" clip-rule="evenodd" d="M30.6725 0.401044C28.7371 1.06822 28.1775 1.79997 28.1056 4.33956C28.0697 5.72773 27.9876 9.84917 28.2083 11.006C28.8706 14.3096 34.7386 14.4226 37.6854 13.5079C39.5798 12.9161 39.9494 12.0767 39.9853 9.62858C40.0213 7.82076 39.9853 6.2012 40.0213 4.83995C40.0213 2.1497 39.4412 0.497892 36.6432 0.169682C34.8823 -0.0509181 32.2333 -0.131625 30.6674 0.401044H30.6725ZM37.7162 10.1935V4.12434C37.7624 2.41873 35.3392 2.63933 34.1225 2.63933C32.7877 2.63933 30.4569 2.49406 30.4569 4.12434V10.1935C30.4569 11.0437 31.4837 11.3611 32.6491 11.4472C33.7178 11.4862 34.7878 11.4538 35.8526 11.3503C36.941 11.2643 37.6494 10.9468 37.6957 10.1828L37.7162 10.1935Z" fill="#EC2327"/>
<path fill-rule="evenodd" clip-rule="evenodd" d="M16.0608 0.0551005C18.8947 0.0551005 22.081 -0.147794 23.8321 0.225094C25.5833 0.597981 26.5004 1.74954 26.5004 4.06364C26.5004 7.9022 25.3398 8.99889 22.7649 9.27858C22.6908 9.28455 22.6162 9.28455 22.5421 9.27858C21.0189 9.41566 19.0088 9.27858 16.4649 9.27858V12.7168C16.4649 13.0571 16.3372 13.3835 16.1099 13.6242C15.8825 13.8648 15.5741 14 15.2526 14C14.9311 14 14.6227 13.8648 14.3953 13.6242C14.168 13.3835 14.0403 13.0571 14.0403 12.7168V10.5234C13.9936 8.91118 14.0403 7.00286 14.0403 5.40713C14.0403 4.10751 14.0869 2.71466 14.0403 1.41504C14.019 1.26523 14.0258 1.11244 14.0604 0.965427C14.0949 0.818415 14.1566 0.680077 14.2418 0.558326C14.327 0.436579 14.4341 0.333818 14.5568 0.255934C14.6796 0.178051 14.8157 0.126574 14.9573 0.104453C15.3209 0.0492703 15.6889 0.0327369 16.0556 0.0551005H16.0608ZM22.5939 2.64337H16.4701V6.74513H21.8582C23.4125 6.74513 24.2104 6.63545 24.2777 4.76006C24.3451 2.88465 23.8218 2.68176 22.5939 2.64337Z" fill="#EC2327"/>
<path d="M12.4606 12.7105V7.31359V4.91614C12.4708 2.18329 11.8669 0.506187 9.06741 0.170766C7.312 -0.0436826 4.65065 -0.142659 3.07944 0.40721C1.1551 1.07805 0.592123 1.82038 0.520472 4.40476C0.520472 5.40002 0.47441 7.77547 0.520472 9.50204V12.6968C0.521142 12.8657 0.552784 13.033 0.613589 13.1888C0.674394 13.3446 0.763172 13.4861 0.874855 13.605C0.986538 13.724 1.11894 13.8182 1.2645 13.8821C1.41005 13.9461 1.56592 13.9787 1.72319 13.978C2.0404 13.978 2.34478 13.8434 2.57004 13.6034C2.7953 13.3634 2.92321 13.0376 2.92591 12.6968V7.51154V7.41257V4.18481C2.92591 2.52971 5.2648 2.67817 6.60571 2.67817C7.79819 2.67817 10.1576 2.45822 10.1115 4.18481V11.784V12.7188C10.1122 12.8878 10.1438 13.0549 10.2046 13.2108C10.2654 13.3666 10.3542 13.508 10.4659 13.627C10.5775 13.746 10.71 13.8401 10.8555 13.9041C11.001 13.9682 11.1569 14.0007 11.3142 14C11.6305 14 11.9338 13.865 12.1574 13.6247C12.3811 13.3845 12.4606 13.0503 12.4606 12.7105Z" fill="#EC2327"/>
<path fill-rule="evenodd" clip-rule="evenodd" d="M41.584 12.7153C41.5853 12.372 41.7136 12.0433 41.9409 11.8006C42.1681 11.5579 42.4759 11.4209 42.7973 11.4195H43.6028L48.8538 0.70059C48.9673 0.47053 49.1422 0.281668 49.3564 0.157973C49.5706 0.0342792 49.8144 -0.01867 50.0568 0.00584594C50.297 -0.0175031 50.5383 0.0361179 50.7498 0.159863C50.9613 0.283608 51.1335 0.471861 51.2443 0.70059L56.4953 11.4195H57.0117C57.333 11.4209 57.6409 11.5579 57.8681 11.8006C58.0954 12.0433 58.2237 12.372 58.225 12.7153C58.2243 12.8847 58.1924 13.0523 58.131 13.2086C58.0697 13.3649 57.9802 13.5067 57.8675 13.626C57.7548 13.7452 57.6212 13.8397 57.4744 13.9039C57.3276 13.968 57.1703 14.0007 57.0117 14H42.7973C42.6386 14.0007 42.4814 13.968 42.3346 13.9039C42.1877 13.8397 42.0542 13.7452 41.9414 13.626C41.8288 13.5067 41.7392 13.3649 41.6779 13.2086C41.6166 13.0523 41.5846 12.8847 41.584 12.7153ZM50.0568 3.83245L46.3341 11.4195H53.764L50.0568 3.83245Z" fill="#117DC1"/>
<path fill-rule="evenodd" clip-rule="evenodd" d="M74.6431 0.0488482C74.8177 0.0495662 74.9912 0.0834454 75.1523 0.148551C75.314 0.213657 75.4604 0.308716 75.5833 0.428297C75.7068 0.547879 75.8044 0.689646 75.8709 0.845496C75.9367 1.00135 75.9708 1.16824 75.9697 1.33663V5.11778L83.152 0.235166C83.4419 0.0402162 83.7994 -0.0379591 84.1487 0.0173287C84.4974 0.0726167 84.8102 0.256987 85.0202 0.531082C85.1213 0.66951 85.1936 0.825884 85.2324 0.99123C85.2712 1.15658 85.2754 1.32765 85.2454 1.49464C85.2154 1.66163 85.1513 1.82124 85.0566 1.96433C84.9625 2.10742 84.8396 2.23118 84.6956 2.3285L77.8608 6.99738L84.6956 11.6663C84.9855 11.8638 85.1824 12.1637 85.243 12.5005C85.3042 12.8374 85.2236 13.1837 85.0202 13.4637C84.8108 13.7384 84.4991 13.924 84.1504 13.9813C83.8017 14.0386 83.4436 13.963 83.152 13.7706L75.9697 8.88251V12.7184C75.9697 12.8858 75.9356 13.0516 75.8685 13.2063C75.8021 13.3608 75.7039 13.5012 75.581 13.6194C75.4575 13.7375 75.3111 13.831 75.1505 13.8946C74.9894 13.9582 74.8171 13.9905 74.6431 13.9898C74.2908 13.9898 73.9527 13.8564 73.7022 13.6184C73.4517 13.3805 73.3088 13.0571 73.3047 12.7184V1.33663C73.3076 0.995978 73.4493 0.670082 73.6999 0.429195C73.9504 0.188307 74.2891 0.0517109 74.6431 0.0488482Z" fill="#117DC1"/>
<path fill-rule="evenodd" clip-rule="evenodd" d="M94.0973 2.57952V12.7212C94.0943 13.0605 93.9579 13.3848 93.7174 13.6242C93.4769 13.8635 93.1517 13.9985 92.8118 14C92.6436 14.0007 92.476 13.9682 92.3202 13.9042C92.1644 13.8403 92.0227 13.7462 91.9033 13.6274C91.7839 13.5086 91.6892 13.3674 91.6246 13.2119C91.5599 13.0564 91.5264 12.8896 91.5264 12.7212V2.57952H88.1228C87.7806 2.57953 87.4524 2.44459 87.2096 2.20405C86.9667 1.96352 86.8291 1.63688 86.8262 1.29527C86.8291 0.952638 86.9661 0.62485 87.209 0.382559C87.4513 0.14027 87.7794 0.00287946 88.1228 0H97.5014C97.6708 0.000722278 97.8383 0.0347986 97.9948 0.100283C98.1512 0.165768 98.2929 0.261379 98.4123 0.381657C98.5316 0.501934 98.6263 0.644523 98.6904 0.80128C98.7551 0.958037 98.7874 1.1259 98.7868 1.29527C98.7868 1.63588 98.6516 1.96253 98.4105 2.20337C98.1694 2.44422 97.8425 2.57952 97.5014 2.57952H94.0973Z" fill="#117DC1"/>
<path fill-rule="evenodd" clip-rule="evenodd" d="M144.021 5.62199H148.918C150.648 5.62199 151.304 5.6825 151.304 4.15324C151.304 3.05304 150.908 2.58546 148.918 2.58546H144.021V5.62199ZM144.021 11.4255H150.197C151.089 11.2275 151.304 10.7654 151.304 9.95673C151.304 8.42751 150.648 8.49349 148.918 8.49349H144.021V11.4365V11.4255ZM150.312 14C147.75 14 145.169 14 142.608 14C142.298 14.0014 141.999 13.868 141.778 13.6288C141.558 13.3896 141.433 13.0642 141.43 12.7237V1.29273C141.431 0.951269 141.555 0.624119 141.774 0.382155C141.994 0.14019 142.292 0.00289074 142.603 0C144.778 0 147.054 0 149.194 0C151.335 0 153.384 0.907662 153.384 3.64165C153.419 4.5342 153.309 5.42635 153.059 6.27662C153.006 6.42417 152.94 6.56599 152.863 6.70021C152.803 6.82286 152.777 6.96189 152.788 7.10049C152.799 7.23915 152.846 7.37136 152.923 7.48135C152.988 7.62245 153.045 7.76756 153.093 7.9159C153.315 8.73459 153.413 9.58744 153.384 10.4408C153.367 11.3466 153.042 12.2126 152.472 12.8682C151.903 13.5239 151.131 13.9218 150.307 13.9835L150.312 14Z" fill="#117DC1"/>
<path fill-rule="evenodd" clip-rule="evenodd" d="M62.3951 0.401044C60.4598 1.06822 59.9 1.79997 59.8283 4.33956C59.7924 5.72773 59.7101 9.84917 59.9312 11.006C60.5933 14.3096 66.4666 14.4226 69.4133 13.5079C71.3026 12.9161 71.6719 12.0767 71.7078 9.62858C71.7443 7.82076 71.7078 6.2012 71.7442 4.83995C71.7442 2.1497 71.1639 0.497892 68.366 0.169682C66.6048 -0.0509181 63.9557 -0.131625 62.3903 0.401044H62.3951ZM69.4391 10.1935V4.12434C69.485 2.41873 67.0617 2.63933 65.8451 2.63933C64.5102 2.63933 62.1798 2.49406 62.1798 4.12434V10.1935C62.1798 11.0437 63.2065 11.3611 64.372 11.4472C65.4405 11.486 66.5107 11.4536 67.5751 11.3503C68.6635 11.2643 69.3721 10.9468 69.4186 10.1828L69.4391 10.1935Z" fill="#117DC1"/>
<path fill-rule="evenodd" clip-rule="evenodd" d="M102.96 0.401044C101.03 1.06822 100.459 1.79997 100.388 4.33956C100.352 5.72773 100.274 9.84917 100.506 11.006C101.154 14.3096 107.049 14.4226 109.991 13.5079C111.884 12.9161 112.259 12.0767 112.306 9.62858C112.306 7.82076 112.306 6.2012 112.306 4.83995C112.331 2.1497 111.724 0.497892 108.926 0.169682C107.167 -0.0509181 104.518 -0.131625 102.939 0.401044H102.96ZM110.007 10.1935V4.12434C110.053 2.41873 107.62 2.63933 106.406 2.63933C105.074 2.63933 102.733 2.49406 102.733 4.12434V10.1935C102.733 11.0437 103.762 11.3611 104.945 11.4472C106.01 11.486 107.078 11.4537 108.139 11.3503C109.235 11.2643 109.94 10.9468 109.991 10.1828L110.007 10.1935Z" fill="#117DC1"/>
<path fill-rule="evenodd" clip-rule="evenodd" d="M130.517 0.401044C128.576 1.06822 128.02 1.79997 127.949 4.33956C127.918 5.72773 127.836 9.84917 128.057 11.006C128.719 14.3096 134.589 14.4226 137.537 13.5079C139.433 12.9161 139.802 12.0767 139.838 9.62858C139.869 7.82076 139.838 6.2012 139.869 4.83995C139.869 2.1497 139.288 0.497892 136.495 0.169682C134.728 -0.0509181 132.083 -0.131625 130.517 0.401044ZM137.584 10.1935V4.12434C137.63 2.41873 135.2 2.63933 133.988 2.63933C132.653 2.63933 130.316 2.49406 130.316 4.12434V10.1935C130.316 11.0437 131.343 11.3611 132.514 11.4472C133.582 11.4862 134.651 11.4539 135.714 11.3503C136.808 11.2643 137.517 10.9468 137.563 10.1828L137.584 10.1935Z" fill="#117DC1"/>
<path fill-rule="evenodd" clip-rule="evenodd" d="M116.069 0.0412783C118.909 0.0412783 121.918 -0.134309 123.667 0.238801C125.416 0.611909 126.348 1.76416 126.348 4.07965C126.348 7.92046 125.188 9.01788 122.616 9.30318C122.542 9.30884 122.468 9.30884 122.394 9.30318C120.841 9.44037 118.848 9.33063 116.323 9.33063V12.7161C116.323 13.0566 116.195 13.3831 115.968 13.6239C115.741 13.8647 115.433 14 115.112 14C114.791 14 114.483 13.8647 114.256 13.6239C114.028 13.3831 113.901 13.0566 113.901 12.7161V10.5213C113.844 8.90813 113.87 6.99866 113.901 5.3965C113.901 4.0961 113.937 2.70791 113.901 1.40752C113.858 1.10413 113.93 0.795035 114.102 0.548126C114.273 0.301215 114.531 0.136677 114.817 0.0906541C115.177 0.0383976 115.541 0.0218578 115.903 0.0412643L116.069 0.0412783ZM122.404 2.65305H116.318V6.75725H121.69C123.243 6.75725 124.05 6.6475 124.122 4.77648C124.195 2.90544 123.662 2.69146 122.399 2.65305H122.404Z" fill="#117DC1"/>
</svg>
