<svg width="109" height="22" viewBox="0 0 109 22" fill="none" xmlns="http://www.w3.org/2000/svg">
<path fill-rule="evenodd" clip-rule="evenodd" d="M21.9694 10.7653C21.9694 4.82046 17.1627 0 11.2347 0C5.30373 0 0.5 4.82046 0.5 10.7653C0.5 16.7101 5.30373 21.5306 11.2347 21.5306C17.1627 21.5306 21.9694 16.7101 21.9694 10.7653Z" fill="#FC3F1D"/>
<path fill-rule="evenodd" clip-rule="evenodd" d="M12.6645 6.10011H11.6801C9.84487 6.10011 8.906 7.04165 8.906 8.38846C8.906 9.91199 9.57749 10.6311 10.9205 11.5726L12.0386 12.3344L8.81788 17.1793H6.40234L9.31011 12.8737C7.65417 11.661 6.7153 10.497 6.7153 8.56519C6.7153 6.10011 8.41377 4.43945 11.6801 4.43945H14.9008V17.225H12.6645V6.10011Z" fill="white"/>
<path fill-rule="evenodd" clip-rule="evenodd" d="M34.4266 0.0185547C29.6654 0.0185547 25.8066 3.88833 25.8066 8.66309C25.8066 11.0489 26.7698 13.2093 28.3285 14.7755C29.8903 16.3387 33.5637 18.6026 33.7794 20.9794C33.8098 21.3359 34.0681 21.6284 34.4266 21.6284C34.7821 21.6284 35.0404 21.3359 35.0708 20.9794C35.2865 18.6026 38.963 16.3387 40.5217 14.7755C42.0804 13.2093 43.0436 11.0489 43.0436 8.66309C43.0436 3.88833 39.1848 0.0185547 34.4266 0.0185547Z" fill="#FF4433"/>
<path fill-rule="evenodd" clip-rule="evenodd" d="M34.4273 11.6882C36.0923 11.6882 37.4414 10.3323 37.4414 8.66246C37.4414 6.99267 36.0923 5.63672 34.4273 5.63672C32.7592 5.63672 31.4102 6.99267 31.4102 8.66246C31.4102 10.3323 32.7592 11.6882 34.4273 11.6882Z" fill="white"/>
<path fill-rule="evenodd" clip-rule="evenodd" d="M99.8436 16.4941H98.5625V12.7764H99.9074C101.094 12.7764 101.793 13.3071 101.793 14.6458C101.793 15.9845 101.022 16.4941 99.8436 16.4941ZM105.663 7.05979V18.6619H108.432V7.05979H105.663ZM95.8029 7.05979V18.6619H100.005C102.722 18.6619 104.646 17.278 104.646 14.5523C104.646 11.9684 102.928 10.6116 100.047 10.6116H98.5625V7.05979H95.8029ZM94.1757 9.22766V7.05979H84.9133V9.22766H88.1647V18.6619H90.9243V9.22766H94.1757ZM79.2059 16.7202C77.7427 16.7202 76.9958 15.5473 76.9958 12.8699C76.9958 10.1744 77.7882 9.00152 79.3456 9.00152C80.8544 9.00152 81.5951 10.1744 81.5951 12.8488C81.5951 15.5473 80.8028 16.7202 79.2059 16.7202ZM76.7924 7.05979H74.2362V21.9996H76.9958V17.2991C77.7001 18.3333 78.7172 18.885 79.9042 18.885C82.5909 18.885 84.4519 16.7473 84.4519 12.8488C84.4519 8.97439 82.6425 6.83668 80.0438 6.83668C78.7384 6.83668 77.6698 7.43065 76.9321 8.5583L76.7924 7.05979ZM69.2483 15.891C68.8962 16.3976 68.2465 16.8137 67.272 16.8137C66.1154 16.8137 65.5294 16.1654 65.5294 15.1765C65.5294 13.8619 66.4797 13.3795 68.8537 13.3795H69.2483V15.891ZM72.0079 10.7473C72.0079 7.94021 70.5659 6.87889 67.6454 6.87889C65.8148 6.87889 64.3728 7.45477 63.5379 7.94021V10.2257C64.2756 9.66485 65.9028 9.06786 67.3236 9.06786C68.6412 9.06786 69.2483 9.52615 69.2483 10.7774V11.4166H68.8021C64.5762 11.4166 62.7031 12.8066 62.7031 15.1554C62.7031 17.5041 64.136 18.8217 66.2763 18.8217C67.9004 18.8217 68.5956 18.2911 69.13 17.7363H69.2483C69.2696 18.0348 69.3667 18.4267 69.4548 18.6619H72.1476C72.0535 17.7152 72.0079 16.7684 72.0079 15.8247V10.7473ZM59.312 18.6619H62.5847L56.8499 10.2468L62.0504 2.63965H59.1936L54.1997 10.0146V2.63965H51.3945V18.6619H54.1997V11.1422L59.312 18.6619Z" fill="black"/>
</svg>
