<svg width="14" height="14" viewBox="0 0 14 14" fill="none" xmlns="http://www.w3.org/2000/svg">
<path fill-rule="evenodd" clip-rule="evenodd" d="M10.7713 3.22858C8.68836 1.1456 5.31181 1.1456 3.22882 3.22858C1.14584 5.31156 1.14584 8.68812 3.22882 10.7711C5.31181 12.8541 8.68836 12.8541 10.7713 10.7711C12.8543 8.68812 12.8543 5.31156 10.7713 3.22858ZM2.28601 2.28577C4.8897 -0.317913 9.11047 -0.317913 11.7142 2.28577C14.3178 4.88945 14.3178 9.11023 11.7142 11.7139C9.11047 14.3176 4.8897 14.3176 2.28601 11.7139C-0.317669 9.11023 -0.317669 4.88945 2.28601 2.28577ZM5.33342 4.99984C5.33342 4.63165 5.6319 4.33317 6.00008 4.33317H9.00008C9.36827 4.33317 9.66675 4.63165 9.66675 4.99984V7.99984C9.66675 8.36803 9.36827 8.66651 9.00008 8.66651C8.63189 8.66651 8.33342 8.36803 8.33342 7.99984V6.60932L5.47149 9.47124C5.21114 9.7316 4.78903 9.7316 4.52868 9.47124C4.26833 9.2109 4.26833 8.78878 4.52868 8.52844L7.39061 5.66651H6.00008C5.6319 5.66651 5.33342 5.36803 5.33342 4.99984Z" fill="#00638D"/>
</svg>
