<svg width="21" height="16" viewBox="0 0 21 16" fill="none" xmlns="http://www.w3.org/2000/svg">
<path d="M5.99671 6.05731C5.99671 7.52941 8.93667 7.74656 8.93667 11.3665C8.93667 14.0212 7.09342 16 4.52667 16C1.79667 15.9759 0 13.442 0 10.7632C0 6.12971 4.2 0 6.81333 0C7.46667 0 8.65658 0.482611 8.65658 1.30308C8.65675 2.1239 5.99675 3.54768 5.99675 6.05723L5.99671 6.05731Z" fill="#FC9696"/>
<path d="M18.06 6.05731C18.06 7.52941 21 7.74656 21 11.3665C21 14.0212 19.1567 16 16.59 16C13.8367 16 12.04 13.466 12.04 10.7873C12.04 6.15385 16.24 0.0241327 18.8533 0.0241327C19.5067 0.0241327 20.6966 0.506744 20.6966 1.32721C20.6966 2.14803 18.06 3.54773 18.06 6.05766V6.05731Z" fill="#FC9696"/>
</svg>
