<svg width="88" height="88" viewBox="0 0 88 88" fill="none" xmlns="http://www.w3.org/2000/svg">
<path fill-rule="evenodd" clip-rule="evenodd" d="M43.9998 81.4C23.377 81.4 6.59978 64.6228 6.59978 44C6.59978 23.3772 23.377 6.6 43.9998 6.6C64.6226 6.6 81.3998 23.3772 81.3998 44C81.3998 64.6228 64.6226 81.4 43.9998 81.4ZM44 0C19.701 0 0 19.701 0 44C0 68.3012 19.701 88 44 88C68.3012 88 88 68.3012 88 44C88 19.701 68.3012 0 44 0Z" fill="#0DC268"/>
<path fill-rule="evenodd" clip-rule="evenodd" d="M58.6039 30.4853C58.1397 30.0387 57.3873 30.0387 56.9231 30.4853L40.5793 46.2263L33.6273 39.5317C33.1653 39.0851 32.4107 39.0851 31.9465 39.5317L28.0239 43.3113C27.5597 43.7579 27.5597 44.4839 28.0239 44.9305L39.7389 56.2143C39.9699 56.4387 40.2757 56.5509 40.5793 56.5509C40.8829 56.5509 41.1865 56.4387 41.4197 56.2143L62.5265 35.8841C62.7509 35.6685 62.8741 35.3781 62.8741 35.0745C62.8741 34.7709 62.7509 34.4783 62.5265 34.2649L58.6039 30.4853Z" fill="#0DC268"/>
</svg>
