<svg width="32" height="32" viewBox="0 0 32 32" fill="none" xmlns="http://www.w3.org/2000/svg">
<g clip-path="url(#clip0_402_25837)">
<path fill-rule="evenodd" clip-rule="evenodd" d="M29.8943 14.2058C29.8943 14.5693 29.7245 14.7629 29.3857 14.7629H27.764V13.6238C27.764 12.7759 27.643 12.3393 26.917 12.3393H26.1907C25.4647 12.3393 25.3434 12.7759 25.3434 13.6238V14.7629H24.2059C23.3586 14.7629 22.923 14.8844 22.923 15.6115V16.3874C22.923 17.1144 23.3586 17.2359 24.2059 17.2359H25.3434V18.3753C25.3434 19.2236 25.4647 19.6602 26.1907 19.6602H26.917C27.643 19.6602 27.764 19.2236 27.764 18.3753V17.2359H29.3857C29.7003 17.2359 29.8701 17.4056 29.8943 17.7207V21.4052C29.8943 22.3022 29.6277 22.9811 28.9985 23.5867L23.6006 28.9926C22.9714 29.6231 22.2693 29.9142 21.3981 29.9142H10.6022C9.73071 29.9142 9.02859 29.6231 8.39938 28.9926L3.00178 23.5867C2.37226 22.9566 2.08185 22.3022 2.10606 21.4052V10.7149C2.10606 9.81781 2.39646 9.04226 3.04986 8.38788L8.54458 2.81233C9.10151 2.2549 9.80331 2.08493 10.6022 2.08493H21.3981C22.1967 2.08493 22.8985 2.2549 23.4554 2.81233L28.9498 8.38788C29.5793 9.04226 29.8943 9.81781 29.8943 10.7149V14.2058ZM24.9319 1.40601C23.9878 0.485039 22.8017 0 21.3739 0H10.6264C9.19831 0 7.98798 0.485039 7.06805 1.40601L1.37973 7.07882C0.484323 7.97555 0 9.16344 0 10.4725V21.4052C0 22.9081 0.508523 24.0721 1.52493 25.0658L6.92317 30.4717C7.98798 31.538 9.17411 32.0231 10.699 31.9992H21.3013C22.7778 31.9992 23.9878 31.5626 25.0771 30.4717L30.4751 25.0658C31.4676 24.0721 32 22.8842 32 21.4052V10.4725C32 9.16344 31.516 7.97555 30.6203 7.07882L24.9319 1.40601Z" fill="#808185"/>
<path d="M11.4307 21.4998H8.57999V13.8295H6.45374V11.6245C7.11524 11.6245 7.68224 11.5353 8.15474 11.3568C8.62724 11.1783 9.02624 10.8423 9.35174 10.3488H11.4307V21.4998Z" fill="#808185"/>
<path d="M17.7654 21.6258C17.2194 21.6258 16.6839 21.5628 16.1589 21.4368C15.6339 21.3108 15.1667 21.106 14.7572 20.8225C14.3477 20.539 14.0169 20.1768 13.7649 19.7358C13.5129 19.2843 13.3869 18.733 13.3869 18.082C13.3869 17.4835 13.5024 16.969 13.7334 16.5385C13.9749 16.0975 14.3214 15.7458 14.7729 15.4833C14.4789 15.2418 14.2374 14.9478 14.0484 14.6013C13.8699 14.2443 13.7807 13.8453 13.7807 13.4043C13.7807 12.8058 13.8962 12.3018 14.1272 11.8923C14.3582 11.4828 14.6627 11.1573 15.0407 10.9158C15.4187 10.6638 15.8439 10.4853 16.3164 10.3803C16.7994 10.2648 17.2877 10.207 17.7812 10.207C18.2642 10.207 18.7367 10.2648 19.1987 10.3803C19.6712 10.4853 20.0912 10.6638 20.4587 10.9158C20.8367 11.1678 21.1359 11.4985 21.3564 11.908C21.5874 12.3175 21.7029 12.8163 21.7029 13.4043C21.7029 13.8348 21.5979 14.239 21.3879 14.617C21.1779 14.9845 20.9364 15.2733 20.6634 15.4833C21.1044 15.7248 21.4509 16.0608 21.7029 16.4913C21.9549 16.9218 22.0862 17.4678 22.0967 18.1293C22.0967 18.7593 21.9654 19.2948 21.7029 19.7358C21.4509 20.1768 21.1202 20.539 20.7107 20.8225C20.3012 21.106 19.8339 21.3108 19.3089 21.4368C18.7944 21.5628 18.2799 21.6258 17.7654 21.6258ZM17.7497 12.6483C17.3192 12.6483 17.0094 12.748 16.8204 12.9475C16.6314 13.147 16.5369 13.3833 16.5369 13.6563C16.5369 13.9188 16.6314 14.1603 16.8204 14.3808C17.0199 14.5908 17.3297 14.6958 17.7497 14.6958C18.1802 14.6958 18.4847 14.5855 18.6632 14.365C18.8417 14.1445 18.9309 13.8978 18.9309 13.6248C18.9309 13.3728 18.8259 13.147 18.6159 12.9475C18.4164 12.748 18.1277 12.6483 17.7497 12.6483ZM19.2459 17.9088C19.2459 17.5623 19.1147 17.284 18.8522 17.074C18.5897 16.8535 18.2169 16.7433 17.7339 16.7433C17.2404 16.7433 16.8624 16.8535 16.5999 17.074C16.3374 17.2945 16.2062 17.5728 16.2062 17.9088C16.2062 18.2658 16.3427 18.5493 16.6157 18.7593C16.8992 18.9693 17.2772 19.0743 17.7497 19.0743C18.1907 19.0743 18.5477 18.9693 18.8207 18.7593C19.1042 18.5493 19.2459 18.2658 19.2459 17.9088Z" fill="#808185"/>
</g>
<defs>
<clipPath id="clip0_402_25837">
<rect width="32" height="32" fill="white"/>
</clipPath>
</defs>
</svg>
