<svg width="18" height="14" viewBox="0 0 18 14" fill="none" xmlns="http://www.w3.org/2000/svg">
<path fill-rule="evenodd" clip-rule="evenodd" d="M2.33503 6.99926C3.07256 8.36141 4.12005 9.6273 5.30783 10.5453C6.50212 11.4684 7.78362 11.9997 9 11.9997C10.2164 11.9997 11.4979 11.4684 12.6922 10.5454C13.88 9.62749 14.9274 8.36181 15.665 7.00009C14.9274 5.63794 13.8799 4.37205 12.6922 3.45403C11.4979 2.53098 10.2164 1.99967 9 1.99967C7.78362 1.99967 6.5021 2.53098 5.3078 3.45395C4.12003 4.37186 3.07255 5.63754 2.33503 6.99926ZM4.28865 2.13519C5.67289 1.06545 7.30387 0.333008 9 0.333008C10.6961 0.333008 12.3271 1.06545 13.7114 2.13532C15.1002 3.20872 16.2958 4.66226 17.1347 6.21423L17.1351 6.21482C17.3991 6.70429 17.3991 7.29589 17.1351 7.78536L17.1347 7.78604C16.2957 9.33758 15.1001 10.7909 13.7113 11.8642C12.3271 12.9339 10.6961 13.6663 9 13.6663C7.30387 13.6663 5.67287 12.9339 4.28862 11.864C2.8998 10.7906 1.7042 9.33709 0.865249 7.78512L0.864926 7.78453C0.600851 7.29506 0.600851 6.70345 0.864926 6.21399L0.865297 6.2133C1.70425 4.66177 2.89985 3.20846 4.28865 2.13519ZM10.1785 5.82116C9.52762 5.17029 8.47234 5.17029 7.82147 5.82116C7.1706 6.47203 7.1706 7.52731 7.82147 8.17819C8.47234 8.82906 9.52762 8.82906 10.1785 8.17819C10.8294 7.52731 10.8294 6.47203 10.1785 5.82116ZM6.64296 4.64265C7.9447 3.34091 10.0553 3.34091 11.357 4.64265C12.6587 5.9444 12.6587 8.05495 11.357 9.3567C10.0553 10.6584 7.9447 10.6584 6.64296 9.3567C5.34121 8.05495 5.34121 5.9444 6.64296 4.64265Z" fill="#55575C"/>
</svg>
