<svg width="24" height="24" viewBox="0 0 24 24" fill="none" xmlns="http://www.w3.org/2000/svg">
<g clip-path="url(#clip0_402_25826)">
<path d="M4.02231e-06 11.52C4.02231e-06 6.0888 4.03062e-06 3.3744 1.68 1.68C3.36 -0.0143959 6.0816 4.02231e-06 11.52 4.02231e-06H12.48C17.9112 4.02231e-06 20.6257 4.03062e-06 22.32 1.68C24.0143 3.36 24 6.0816 24 11.52V12.48C24 17.9112 24 20.6257 22.32 22.32C20.64 24.0143 17.9183 24 12.48 24H11.52C6.0888 24 3.3744 24 1.68 22.32C-0.0143959 20.64 4.02231e-06 17.9183 4.02231e-06 12.48V11.52Z" fill="#FF8800"/>
<path d="M12.0233 12.2366C14.0252 12.2366 15.6572 10.6046 15.6572 8.60268C15.6572 6.60075 14.0252 4.96875 12.0233 4.96875C9.99957 4.96875 8.36755 6.60075 8.36755 8.60268C8.36755 10.6046 9.99957 12.2366 12.0233 12.2366ZM12.0233 7.10123C12.8501 7.10123 13.5247 7.7758 13.5247 8.60268C13.5247 9.42957 12.8501 10.1041 12.0233 10.1041C11.1964 10.1041 10.5218 9.42957 10.5218 8.60268C10.5001 7.7758 11.1746 7.10123 12.0233 7.10123Z" fill="white"/>
<path d="M13.4812 15.2181C14.221 15.044 14.9391 14.7611 15.592 14.3477C16.0924 14.0431 16.2447 13.3685 15.9183 12.868C15.6137 12.3675 14.9391 12.2152 14.4386 12.5416C12.959 13.4773 11.0223 13.4773 9.54261 12.5416C9.04213 12.237 8.38933 12.3675 8.06293 12.868C7.78004 13.3685 7.93236 14.0213 8.43284 14.326C9.08566 14.7394 9.80374 15.0223 10.5436 15.1964L8.51989 17.2201C8.10644 17.6335 8.10644 18.3081 8.51989 18.7215C8.73749 18.9391 8.99861 19.0261 9.28149 19.0261C9.56437 19.0261 9.82549 18.9173 10.0431 18.7215L12.045 16.7196L14.047 18.7215C14.4604 19.135 15.1349 19.135 15.5484 18.7215C15.9618 18.3081 15.9618 17.6335 15.5484 17.2201L13.4812 15.2181Z" fill="white"/>
</g>
<defs>
<clipPath id="clip0_402_25826">
<rect width="24" height="24" fill="white"/>
</clipPath>
</defs>
</svg>
