<svg width="16" height="16" viewBox="0 0 16 16" fill="none" xmlns="http://www.w3.org/2000/svg">
<path fill-rule="evenodd" clip-rule="evenodd" d="M1.81571 1.00271C2.79198 0.0264403 4.37461 0.0264403 5.35088 1.00271L6.32922 1.98104C7.17251 2.82434 7.11266 4.14361 6.25838 4.99789L5.67347 5.58209C6.11894 6.54625 6.77353 7.50202 7.63588 8.36438C8.49831 9.2268 9.45412 9.88214 10.4183 10.3284L11.0727 9.67321C11.886 8.85867 13.2058 8.85928 14.0192 9.67271L14.9967 10.6502C15.973 11.6265 15.973 13.2091 14.9967 14.1854L14.4542 14.7279C13.6303 15.5518 12.4561 15.8804 11.3188 15.6659C8.95446 15.2189 6.42375 13.8609 4.28154 11.7187C2.13933 9.57652 0.781454 7.0461 0.334465 4.68177C0.119872 3.54442 0.448465 2.36995 1.27237 1.54604L1.81571 1.00271ZM2.99422 2.18122C3.31961 1.85583 3.84698 1.85583 4.17237 2.18122L5.15071 3.15956L5.26433 3.44046L5.08003 3.81922L4.39773 4.50068C3.99201 4.9064 3.83355 5.5438 4.08579 6.11568C4.61665 7.31953 5.41117 8.49668 6.45737 9.54289C7.50345 10.589 8.68053 11.3843 9.88436 11.916C10.4563 12.1684 11.0938 12.01 11.4995 11.6042L12.2522 10.8507C12.4139 10.6888 12.6775 10.688 12.8407 10.8512L13.8182 11.8287C14.1436 12.1541 14.1436 12.6815 13.8182 13.0069L13.2757 13.5494C12.8647 13.9604 12.2573 14.1468 11.6281 14.0281C9.63743 13.6518 7.39951 12.4797 5.46005 10.5402C3.52069 8.60085 2.34853 6.36276 1.97212 4.37216C1.8535 3.74295 2.03985 3.13558 2.45088 2.72456L2.99422 2.18122Z" fill="#2B2D33"/>
</svg>
