<svg width="20" height="20" viewBox="0 0 20 20" fill="none" xmlns="http://www.w3.org/2000/svg">
<path fill-rule="evenodd" clip-rule="evenodd" d="M9.99996 3.33366C6.3152 3.33366 3.33329 6.31556 3.33329 10.0003C3.33329 11.068 3.60125 12.0732 4.05708 12.9803C4.26372 13.3916 4.09785 13.8925 3.68661 14.0991C3.27537 14.3057 2.77448 14.1399 2.56784 13.7286C2.00701 12.6125 1.66663 11.3527 1.66663 10.0003C1.66663 5.39509 5.39472 1.66699 9.99996 1.66699C14.6052 1.66699 18.3333 5.39509 18.3333 10.0003C18.3333 11.3503 17.9949 12.6117 17.4293 13.7292C17.2214 14.1398 16.7201 14.3042 16.3094 14.0963C15.8988 13.8885 15.7344 13.3871 15.9423 12.9765C16.4 12.0722 16.6666 11.0671 16.6666 10.0003C16.6666 6.31556 13.6847 3.33366 9.99996 3.33366ZM11.1785 7.15515C10.5276 6.50428 9.4723 6.50428 8.82143 7.15515C8.17056 7.80602 8.17056 8.8613 8.82143 9.51217C9.4723 10.163 10.5276 10.163 11.1785 9.51217C11.8293 8.8613 11.8293 7.80602 11.1785 7.15515ZM7.64292 5.97664C8.94467 4.67489 11.0552 4.67489 12.357 5.97664C13.6587 7.27838 13.6587 9.38894 12.357 10.6907C11.0552 11.9924 8.94467 11.9924 7.64292 10.6907C6.34118 9.38894 6.34118 7.27838 7.64292 5.97664ZM6.2973 15.4814C7.34629 16.23 8.61516 16.667 9.98079 16.667C11.3633 16.667 12.6483 16.2188 13.7026 15.4534C12.6536 14.7048 11.3848 14.2678 10.0191 14.2678C8.63662 14.2678 7.35167 14.716 6.2973 15.4814ZM4.41914 14.8894C5.87356 13.4758 7.84797 12.6012 10.0191 12.6012C12.1692 12.6012 14.122 13.4584 15.5752 14.8449C15.7391 15.0012 15.8322 15.2175 15.8333 15.444C15.8343 15.6704 15.7432 15.8876 15.5808 16.0454C14.1264 17.459 12.1519 18.3337 9.98079 18.3337C7.83068 18.3337 5.87789 17.4764 4.4247 16.0899C4.26085 15.9336 4.16768 15.7173 4.16664 15.4909C4.16559 15.2644 4.25675 15.0473 4.41914 14.8894Z" fill="#2B2D33"/>
</svg>
