<svg width="24" height="24" viewBox="0 0 24 24" fill="none" xmlns="http://www.w3.org/2000/svg">
<g clip-path="url(#clip0_402_25832)">
<path d="M4.02231e-06 11.52C4.02231e-06 6.0888 4.03062e-06 3.3744 1.68 1.68C3.36 -0.0143959 6.0816 4.02231e-06 11.52 4.02231e-06H12.48C17.9112 4.02231e-06 20.6257 4.03062e-06 22.32 1.68C24.0143 3.36 24 6.0816 24 11.52V12.48C24 17.9112 24 20.6257 22.32 22.32C20.64 24.0143 17.9183 24 12.48 24H11.52C6.0888 24 3.3744 24 1.68 22.32C-0.0143959 20.64 4.02231e-06 17.9183 4.02231e-06 12.48V11.52Z" fill="#FF0000"/>
<path fill-rule="evenodd" clip-rule="evenodd" d="M17.0004 7.87427C17.5512 8.02541 17.9849 8.47072 18.1321 9.03622C18.3996 10.0611 18.3996 12.1996 18.3996 12.1996C18.3996 12.1996 18.3996 14.338 18.1321 15.363C17.9849 15.9285 17.5512 16.3738 17.0004 16.525C16.0023 16.7996 11.9996 16.7996 11.9996 16.7996C11.9996 16.7996 7.99692 16.7996 6.99874 16.525C6.44797 16.3738 6.01423 15.9285 5.86703 15.363C5.59961 14.338 5.59961 12.1996 5.59961 12.1996C5.59961 12.1996 5.59961 10.0611 5.86703 9.03622C6.01423 8.47072 6.44797 8.02541 6.99874 7.87427C7.99692 7.59961 11.9996 7.59961 11.9996 7.59961C11.9996 7.59961 16.0023 7.59961 17.0004 7.87427ZM10.7997 10.3994V14.3994L13.9997 12.3995L10.7997 10.3994Z" fill="white"/>
</g>
<defs>
<clipPath id="clip0_402_25832">
<rect width="24" height="24" fill="white"/>
</clipPath>
</defs>
</svg>
