<svg width="17" height="14" viewBox="0 0 17 14" fill="none" xmlns="http://www.w3.org/2000/svg">
<g clip-path="url(#clip0_402_11657)">
<path fill-rule="evenodd" clip-rule="evenodd" d="M8.74763 11.5688C10.0574 11.4442 11.1628 10.328 11.6369 8.78479C11.6554 8.72452 11.613 8.66191 11.5473 8.65221C10.6575 8.52044 9.70887 8.44589 8.73592 8.43555C8.674 8.43485 8.62317 8.48235 8.62317 8.54077V11.4648C8.62317 11.5276 8.68134 11.5751 8.74763 11.5688Z" fill="#0079C1"/>
<path fill-rule="evenodd" clip-rule="evenodd" d="M9.96091 2.75857C10.8513 3.28985 11.5515 4.31184 11.879 5.5756C11.8905 5.6202 11.9347 5.6488 11.9802 5.6403C13.2613 5.40243 14.3948 5.03157 15.2624 4.55423C15.3176 4.52385 15.3233 4.44575 15.2729 4.40783C15.0154 4.21395 14.729 4.02998 14.415 3.85774C13.9663 3.61171 13.4753 3.39767 12.9516 3.21716V2.52616C12.9516 2.52208 12.9506 2.51827 12.9504 2.5143V2.21653C12.9504 1.81729 13.2761 1.49241 13.6766 1.49241H14.2449C14.2479 1.49241 14.2506 1.49169 14.2534 1.49155C14.2564 1.49169 14.2591 1.49241 14.2621 1.49241C14.3738 1.49241 14.4643 1.40217 14.4643 1.29075V0.201628C14.4643 0.0902371 14.3738 0 14.2621 0H10.3378C10.2261 0 10.1354 0.0902371 10.1354 0.201628V1.29075C10.1354 1.40217 10.2261 1.49241 10.3378 1.49241C10.3436 1.49241 10.3489 1.49128 10.3546 1.49073C10.3602 1.49128 10.3656 1.49241 10.3714 1.49241H10.9398C11.3402 1.49241 11.6659 1.81729 11.6659 2.21653V2.52458C11.6659 2.52509 11.6658 2.52561 11.6658 2.52616V2.857C11.1352 2.7392 10.5827 2.65136 10.0144 2.5963C9.92123 2.58729 9.88059 2.71071 9.96091 2.75857ZM12.5458 2.21653V2.59168C12.5458 2.59565 12.5467 2.59942 12.5469 2.6034V3.08705C12.5023 3.07355 12.4579 3.05993 12.4129 3.04684V2.08334C12.452 1.70686 12.71 1.39504 13.0572 1.27443C12.7496 1.47619 12.5458 1.82284 12.5458 2.21653ZM14.0597 0.40329V1.05885H13.3739C12.9008 1.05885 12.4955 1.35095 12.3281 1.7635C12.1607 1.35095 11.7555 1.05885 11.2825 1.05885H10.5401V0.40329H14.0597ZM12.0703 2.59325C12.0703 2.59274 12.0706 2.59219 12.0706 2.59168V2.21653C12.0706 1.80683 11.8494 1.44846 11.5206 1.25108C11.929 1.35482 12.2336 1.71762 12.2473 2.15342C12.2469 2.16356 12.2457 2.17351 12.2457 2.18365V3.00035C12.1874 2.98441 12.1292 2.96839 12.0703 2.95334V2.59325Z" fill="#0079C1"/>
<path fill-rule="evenodd" clip-rule="evenodd" d="M8.7019 5.85109C9.72228 5.84135 10.7159 5.75613 11.6413 5.60457C11.2045 3.85138 10.0232 2.57604 8.62317 2.50781V5.77418C8.62317 5.81681 8.65866 5.8515 8.7019 5.85109Z" fill="#0079C1"/>
<mask id="mask0_402_11657" style="mask-type:alpha" maskUnits="userSpaceOnUse" x="0" y="0" width="16" height="14">
<path d="M15.2766 13.8926H0V0.0263672H15.2766V13.8926Z" fill="#0079C1"/>
</mask>
<g mask="url(#mask0_402_11657)">
<path fill-rule="evenodd" clip-rule="evenodd" d="M15.2407 9.77345C14.3554 9.31486 13.2085 8.95928 11.917 8.7314C11.8822 8.72523 11.8483 8.74603 11.8389 8.77887C11.4855 10.0157 10.7535 11.0062 9.83193 11.5026C9.76695 11.5375 9.79677 11.6327 9.87081 11.6261C10.3403 11.5852 10.7993 11.5227 11.245 11.4409C10.8284 12.0175 10.148 12.3651 9.40414 12.3651H9.26413C8.46264 12.3651 7.75825 11.9578 7.36115 11.3471C7.64211 11.4842 7.94015 11.5729 8.2503 11.6027C8.31363 11.6087 8.36816 11.5587 8.36816 11.4973V8.54944C8.36816 8.49053 8.31794 8.44265 8.25681 8.44339C7.83895 8.44788 7.42592 8.46571 7.01958 8.49434V8.2637C7.42707 8.23513 7.84119 8.21773 8.25988 8.21322C8.31976 8.21261 8.36816 8.16594 8.36816 8.10818V6.20595C8.36816 6.14829 8.31976 6.10162 8.25988 6.10101C7.84119 6.09649 7.42707 6.07906 7.01958 6.05063V5.81978C7.43285 5.84892 7.85305 5.86682 8.27829 5.87104C8.32767 5.87148 8.36816 5.83283 8.36816 5.78536V2.58631C7.88535 2.60971 7.42921 2.77427 7.01958 3.04757V2.7687C7.08501 2.72915 7.15136 2.69165 7.21879 2.65736C7.26817 2.63224 7.24497 2.55974 7.18929 2.56439C7.13236 2.56901 7.07623 2.57532 7.01958 2.58054V2.57697C7.01958 2.57643 7.01971 2.57592 7.01971 2.57542V2.20652C7.01971 1.81378 7.35131 1.49435 7.75878 1.49435H8.33729C8.33943 1.49435 8.34131 1.49371 8.34359 1.49371C8.34572 1.49371 8.34765 1.49435 8.34989 1.49435C8.46358 1.49435 8.55572 1.40546 8.55572 1.2959V0.22471C8.55572 0.115119 8.46358 0.0263672 8.34989 0.0263672H2.39007C2.27638 0.0263672 2.18428 0.115119 2.18428 0.22471V1.2959C2.18428 1.40546 2.27638 1.49435 2.39007 1.49435C2.39084 1.49435 2.39158 1.49411 2.39235 1.49411C2.39308 1.49411 2.39382 1.49435 2.39459 1.49435H2.97296C3.38053 1.49435 3.71206 1.81378 3.71206 2.20652V2.48849C3.71206 2.48974 3.71164 2.49095 3.71164 2.4923V3.29956C3.29441 3.45258 2.89933 3.62631 2.53243 3.82074C2.22253 3.98499 1.93911 4.16014 1.68328 4.34449C1.61938 4.39051 1.62865 4.48486 1.69878 4.52162C2.26879 4.82095 2.95137 5.07625 3.71164 5.28252V5.52082C2.80324 5.27935 1.99958 4.96916 1.35647 4.59938C1.35605 4.59904 1.3557 4.59854 1.35528 4.59833C0.47299 5.33306 -0.00012207 6.19377 -0.00012207 7.09879C-0.00012207 8.01258 0.482088 8.88125 1.38114 9.62084C1.416 9.64957 1.466 9.65398 1.50596 9.63227C2.12251 9.29871 2.87218 9.01657 3.71164 8.79321V9.03117C2.99368 9.2258 2.34511 9.46431 1.79525 9.74223C1.72219 9.77922 1.71533 9.87633 1.78234 9.92277C2.01176 10.0816 2.26186 10.2334 2.53243 10.3768C2.97786 10.6129 3.46445 10.8187 3.98284 10.9934C4.00702 11.0015 4.03127 11.0004 4.05304 10.9933C4.7583 12.6902 6.4812 13.8926 8.49116 13.8926H8.60391C10.4447 13.8926 12.0935 12.7696 12.707 11.0982C12.7086 11.0937 12.7091 11.0892 12.7104 11.0847C13.3355 10.8919 13.9185 10.6554 14.4442 10.3768C14.7364 10.2219 15.0046 10.0574 15.2487 9.88466C15.289 9.85614 15.2847 9.79622 15.2407 9.77345ZM6.60795 2.20652V2.49065C6.60795 2.49129 6.60784 2.49169 6.60784 2.4923V10.2021C6.60784 11.6136 7.79951 12.7618 9.26413 12.7618H9.40414C10.4104 12.7618 11.3186 12.2244 11.7743 11.3591C11.7793 11.3499 11.7825 11.3404 11.7858 11.3308C11.8194 11.3232 11.8527 11.3151 11.8863 11.3073C11.3299 12.429 10.1661 13.1429 8.86072 13.1429H8.79123C6.94126 13.1429 5.43601 11.6926 5.43601 9.90989V3.05158V2.49611V2.49014C5.43601 2.48036 5.43475 2.47089 5.43454 2.46107C5.45078 1.77783 6.0315 1.22647 6.74442 1.22647H7.2217C6.85717 1.41278 6.60795 1.78195 6.60795 2.20652ZM8.14395 0.42312V1.06778H6.74442C6.10086 1.06778 5.5537 1.46734 5.35224 2.0219C5.15071 1.46734 4.60352 1.06778 3.96009 1.06778H2.59601V0.42312H8.14395ZM8.60391 13.4958H8.49116C6.0828 13.4958 4.12337 11.6077 4.12337 9.28697V2.57933C4.12337 2.57798 4.12379 2.57673 4.12379 2.57542V2.20652C4.12379 1.78195 3.87471 1.41278 3.51008 1.22647H3.96009C4.67298 1.22647 5.25363 1.77783 5.26983 2.46107C5.26966 2.47089 5.26836 2.48036 5.26836 2.49014V3.05158C5.26836 3.05674 5.27039 3.06126 5.27134 3.06608V9.90989C5.27134 11.7801 6.85042 13.3016 8.79123 13.3016H8.86072C10.2755 13.3016 11.5324 12.5026 12.0911 11.2579C12.1314 11.2478 12.1714 11.2372 12.2114 11.2267C11.5875 12.5948 10.1727 13.4958 8.60391 13.4958Z" fill="#0079C1"/>
</g>
<path fill-rule="evenodd" clip-rule="evenodd" d="M15.6234 4.63408C15.5748 4.59115 15.5033 4.58486 15.4466 4.61685C14.5608 5.11567 13.3897 5.50354 12.0621 5.75271C11.9799 5.76818 11.9264 5.84513 11.9413 5.9259C12.0086 6.29216 12.045 6.67456 12.045 7.06845C12.045 7.50186 12.0017 7.92183 11.921 8.32119C11.9044 8.4028 11.958 8.48161 12.0415 8.49712C13.3378 8.73872 14.4857 9.11258 15.366 9.59247C15.4217 9.62284 15.4906 9.61683 15.5389 9.57609C16.4096 8.83939 16.8763 7.97611 16.8763 7.06845C16.8763 6.19065 16.4396 5.3545 15.6234 4.63408Z" fill="#0079C1"/>
<path fill-rule="evenodd" clip-rule="evenodd" d="M8.73196 8.17097C9.72384 8.18122 10.6916 8.25766 11.599 8.39286C11.6567 8.4015 11.7118 8.36678 11.7237 8.31321C11.8103 7.9233 11.8569 7.51138 11.8569 7.08534C11.8569 6.69983 11.8181 6.32615 11.7467 5.96961C11.7358 5.91505 11.6799 5.87924 11.6212 5.88805C10.7075 6.02539 9.732 6.10304 8.73196 6.11339C8.67173 6.11398 8.62317 6.15941 8.62317 6.21561V8.06865C8.62317 8.12492 8.67173 8.17035 8.73196 8.17097Z" fill="#0079C1"/>
</g>
<defs>
<clipPath id="clip0_402_11657">
<rect width="17" height="14" fill="white"/>
</clipPath>
</defs>
</svg>
