<svg width="16" height="16" viewBox="0 0 16 16" fill="none" xmlns="http://www.w3.org/2000/svg">
<path d="M7.93552 8.08785C7.93552 9.36225 6.89681 10.3818 5.63439 10.3818C4.37196 10.3818 3.33325 9.36225 3.33325 8.08785C3.33325 6.81346 4.35598 5.79395 5.63439 5.79395C6.91279 5.79395 7.93552 6.82939 7.93552 8.08785Z" fill="url(#paint0_radial_402_11637)"/>
<path d="M7.03111 6.26476C6.38943 6.11515 5.41125 6.08401 4.83541 7.02058C4.01888 8.34863 5.20562 10.1247 6.91064 9.9964C6.54444 10.2401 6.10496 10.3818 5.63439 10.3818C4.37196 10.3818 3.33325 9.36224 3.33325 8.08785C3.33325 6.81346 4.35598 5.79395 5.63439 5.79395C6.1613 5.79395 6.64478 5.96985 7.03111 6.26476Z" fill="url(#paint1_linear_402_11637)"/>
<path d="M7.90358 14.6663H4.81942C4.1163 14.6663 3.54102 14.0929 3.54102 13.3919C3.54102 12.691 4.1163 12.1176 4.81942 12.1176H7.8876C10.1728 12.1176 12.0264 10.2697 12.0264 7.99171C12.0264 5.72966 10.1728 3.88179 7.90358 3.88179H4.81942C4.1163 3.88179 3.54102 3.30832 3.54102 2.6074C3.54102 1.90648 4.1163 1.33301 4.81942 1.33301H7.8876C11.579 1.33301 14.5833 4.32783 14.5833 8.00764C14.5833 11.6715 11.595 14.6663 7.90358 14.6663Z" fill="url(#paint2_radial_402_11637)"/>
<path d="M8.2683 3.89844C10.7001 3.91391 12.6819 5.88331 12.6819 8.32686C12.6819 11.1465 10.3808 13.4404 7.55229 13.4404H3.73305C3.66782 13.4404 3.60383 13.4344 3.54162 13.423C3.54138 13.4129 3.54126 13.4028 3.54126 13.3926C3.54126 12.6917 4.11654 12.1182 4.81967 12.1182H7.88785C10.173 12.1182 12.0267 10.2703 12.0267 7.99235C12.0267 5.8527 10.3682 4.08362 8.2683 3.89844Z" fill="url(#paint3_linear_402_11637)"/>
<defs>
<radialGradient id="paint0_radial_402_11637" cx="0" cy="0" r="1" gradientUnits="userSpaceOnUse" gradientTransform="translate(3.26156 6.43718) rotate(40.1909) scale(5.53743 5.53455)">
<stop stop-color="#FF6712"/>
<stop offset="1" stop-color="#FF5132"/>
</radialGradient>
<linearGradient id="paint1_linear_402_11637" x1="5.16499" y1="10.4691" x2="5.16499" y2="4.69994" gradientUnits="userSpaceOnUse">
<stop stop-color="#2E0700" stop-opacity="0"/>
<stop offset="1" stop-color="#FF5132"/>
</linearGradient>
<radialGradient id="paint2_radial_402_11637" cx="0" cy="0" r="1" gradientUnits="userSpaceOnUse" gradientTransform="translate(3.369 3.2024) rotate(45.6595) scale(14.5212 14.7166)">
<stop stop-color="#FF6712"/>
<stop offset="1" stop-color="#FF5132"/>
</radialGradient>
<linearGradient id="paint3_linear_402_11637" x1="4.01476" y1="12.7943" x2="11.0542" y2="4.62301" gradientUnits="userSpaceOnUse">
<stop stop-color="#2E0700" stop-opacity="0"/>
<stop offset="1" stop-color="#FF5132"/>
</linearGradient>
</defs>
</svg>
