<svg width="16" height="16" viewBox="0 0 16 16" fill="none" xmlns="http://www.w3.org/2000/svg">
<path fill-rule="evenodd" clip-rule="evenodd" d="M2.66803 7.99999C3.25805 9.08971 4.09604 10.1024 5.04626 10.8368C6.0017 11.5753 7.0269 12.0003 8 12.0003C8.9731 12.0003 9.99831 11.5753 10.9538 10.8369C11.904 10.1026 12.742 9.09003 13.332 8.00066C12.7419 6.91094 11.904 5.89822 10.9537 5.16381C9.9983 4.42537 8.97309 4.00033 8 4.00033C7.02689 4.00033 6.00168 4.42537 5.04624 5.16375C4.09602 5.89808 3.25804 6.91062 2.66803 7.99999ZM4.23092 4.10874C5.33831 3.25295 6.6431 2.66699 8 2.66699C9.3569 2.66699 10.6617 3.25295 11.7691 4.10884C12.8801 4.96756 13.8366 6.13039 14.5078 7.37197L14.5081 7.37244C14.7193 7.76402 14.7193 8.2373 14.5081 8.62887L14.5078 8.62942C13.8366 9.87065 12.8801 11.0333 11.7691 11.8919C10.6617 12.7477 9.35689 13.3337 8 13.3337C6.6431 13.3337 5.3383 12.7477 4.2309 11.8918C3.11984 11.0331 2.16336 9.87026 1.4922 8.62868L1.49194 8.62821C1.28068 8.23663 1.28068 7.76335 1.49194 7.37178L1.49224 7.37123C2.1634 6.13 3.11988 4.96736 4.23092 4.10874ZM8.94279 7.05752C8.42209 6.53682 7.57787 6.53682 7.05717 7.05752C6.53648 7.57821 6.53648 8.42244 7.05717 8.94313C7.57787 9.46383 8.42209 9.46383 8.94279 8.94313C9.46349 8.42244 9.46349 7.57821 8.94279 7.05752ZM6.11437 6.11471C7.15576 5.07331 8.8442 5.07331 9.8856 6.11471C10.927 7.1561 10.927 8.84455 9.8856 9.88594C8.8442 10.9273 7.15576 10.9273 6.11437 9.88594C5.07297 8.84455 5.07297 7.1561 6.11437 6.11471Z" fill="#2B2D33"/>
</svg>
