<svg width="199" height="50" viewBox="0 0 199 50" fill="none" xmlns="http://www.w3.org/2000/svg">
<path d="M95.5698 7.88184V20.0777H93.9426V9.34533H89.3052V14.4676C89.3052 19.1833 88.0848 20.4029 86.4576 20.4029C86.1322 20.4029 85.7254 20.3216 85.3186 20.3216V18.9394C85.4813 18.9394 85.7254 19.0207 86.1322 19.0207C87.4339 19.0207 87.678 17.3946 87.678 13.9798V7.96314H95.5698V7.88184Z" fill="#808080"/>
<path d="M100.127 17.8824L106.392 7.88184H108.263V20.0777H106.636V10.2397L100.453 20.0777H98.5815V7.88184H100.209V17.8824H100.127Z" fill="#808080"/>
<path d="M112.9 13.004H119.246V7.96309H120.873V20.1589H119.246V14.4675H112.9V20.1589H111.273V7.96309H112.9V13.004Z" fill="#808080"/>
<path d="M125.428 17.8824L131.693 7.88184H133.564V20.0777H131.937V10.2397L125.753 20.0777H123.882V7.88184H125.509V17.8824H125.428Z" fill="#808080"/>
<path d="M150.406 16.5815L149.104 20.1589H147.395L152.033 7.96309H153.904L158.297 20.1589H156.507L155.287 16.5815H150.406ZM154.718 15.118L152.928 9.75181L150.975 15.118H154.718Z" fill="#808080"/>
<path d="M84.1817 22.6794V34.8753H82.5545V24.1429H76.1272V34.8753H74.5V22.6794H84.1817Z" fill="#808080"/>
<path d="M87.109 34.8753V22.6794H92.6414C94.9195 22.6794 96.3026 24.1429 96.3026 26.0943C96.3026 27.8017 95.3263 29.753 92.6414 29.753H88.8176V34.8753H87.109ZM88.7362 28.2895H91.9906C93.455 28.2895 94.5127 27.7204 94.5127 26.0943C94.5127 24.5495 93.455 24.0616 92.0719 24.0616H88.7362V28.2895Z" fill="#808080"/>
<path d="M104.113 35.2008C99.5574 35.2008 98.1743 31.3794 98.1743 28.7776C98.1743 26.1758 99.5574 22.3545 104.113 22.3545C108.67 22.3545 110.053 26.1758 110.053 28.7776C110.053 31.3794 108.67 35.2008 104.113 35.2008ZM104.113 23.818C101.429 23.818 99.8828 25.8506 99.8828 28.7776C99.8828 31.6233 101.429 33.7373 104.113 33.7373C106.798 33.7373 108.344 31.6233 108.344 28.7776C108.344 25.8506 106.798 23.818 104.113 23.818Z" fill="#808080"/>
<path d="M119.167 23.899C122.991 23.899 124.862 26.2569 124.862 28.7774C124.862 31.2978 122.991 33.6557 119.167 33.6557V34.8753H117.54V33.5744C113.716 33.5744 111.845 31.2165 111.845 28.6961C111.845 26.1756 113.716 23.8177 117.54 23.8177V22.6794H119.167V23.899ZM117.54 32.2735V25.1999C115.262 25.1999 113.553 26.2569 113.553 28.7774C113.553 31.2978 115.18 32.2735 117.54 32.2735ZM119.167 25.1999V32.2735C121.445 32.2735 123.153 31.2165 123.153 28.6961C123.153 26.1756 121.445 25.1999 119.167 25.1999Z" fill="#808080"/>
<path d="M136.09 34.8753H127.059V22.6794H135.927V24.1429H128.686V27.7204H135.358V29.1839H128.686V33.4118H136.09V34.8753Z" fill="#808080"/>
<path d="M147.234 26.3384C146.746 24.2244 144.956 23.8179 143.817 23.8179C141.62 23.8179 139.83 25.444 139.83 28.6962C139.83 31.5419 140.806 33.8185 143.898 33.8185C144.956 33.8185 146.827 33.3307 147.396 30.485H149.024C148.373 35.1194 144.63 35.282 143.654 35.282C140.888 35.282 138.203 33.4933 138.203 28.7775C138.203 25.0375 140.318 22.4357 143.898 22.4357C147.071 22.4357 148.698 24.387 148.942 26.4197H147.234V26.3384Z" fill="#808080"/>
<path d="M159.924 26.3384C159.436 24.2244 157.646 23.8179 156.507 23.8179C154.311 23.8179 152.521 25.444 152.521 28.6962C152.521 31.5419 153.497 33.8185 156.589 33.8185C157.646 33.8185 159.518 33.3307 160.087 30.485H161.714C161.064 35.1194 157.321 35.282 156.345 35.282C153.579 35.282 150.812 33.4933 150.812 28.7775C150.812 25.0375 152.928 22.4357 156.507 22.4357C159.68 22.4357 161.308 24.387 161.552 26.4197H159.924V26.3384Z" fill="#808080"/>
<path d="M169.525 35.2008C164.969 35.2008 163.586 31.3794 163.586 28.7776C163.586 26.1758 164.969 22.3545 169.525 22.3545C174.081 22.3545 175.464 26.1758 175.464 28.7776C175.464 31.3794 174.081 35.2008 169.525 35.2008ZM169.525 23.818C166.84 23.818 165.294 25.8506 165.294 28.7776C165.294 31.6233 166.84 33.7373 169.525 33.7373C172.21 33.7373 173.756 31.6233 173.756 28.7776C173.756 25.8506 172.129 23.818 169.525 23.818Z" fill="#808080"/>
<path d="M177.907 34.8753V22.6794H183.439C185.717 22.6794 187.019 24.1429 187.019 26.0943C187.019 27.8017 186.042 29.753 183.439 29.753H179.615V34.8753H177.907ZM179.534 28.2895H182.788C184.253 28.2895 185.31 27.7204 185.31 26.0943C185.31 24.5495 184.253 24.0616 182.869 24.0616H179.534V28.2895Z" fill="#808080"/>
<path d="M190.109 31.2978L188.808 34.8753H187.099L191.737 22.6794H193.608L198.001 34.8753H196.211L194.991 31.2978H190.109ZM194.421 29.8343L192.632 24.4682L190.679 29.8343H194.421Z" fill="#808080"/>
<path d="M88.4145 46.0142L87.1128 49.5917H85.4042L90.0417 37.3958H91.9129L96.3063 49.5917H94.5164L93.296 46.0142H88.4145ZM92.6451 44.5507L90.8552 39.1845L88.9026 44.5507H92.6451Z" fill="#808080"/>
<path d="M107.693 37.3958V49.5917H106.066V38.8593H101.428V43.9816C101.428 48.6973 100.208 49.9169 98.5807 49.9169C98.2553 49.9169 97.8485 49.8356 97.4417 49.8356V48.4534C97.6044 48.4534 97.8485 48.5347 98.2553 48.5347C99.557 48.5347 99.8011 46.9086 99.8011 43.575V37.5584H107.693V37.3958Z" fill="#808080"/>
<path d="M112.25 47.3964L118.515 37.3958H120.386V49.5917H118.759V39.7537L112.576 49.5917H110.705V37.3958H112.332V47.3964H112.25Z" fill="#808080"/>
<path d="M125.023 42.4368H131.369V37.3958H132.996V49.5917H131.369V43.9003H125.023V49.5917H123.396V37.3958H125.023V42.4368Z" fill="#808080"/>
<path d="M137.633 41.1359C137.633 42.5994 138.772 43.006 139.992 43.006C141.212 43.006 142.351 42.762 143.409 42.5994V37.3959H145.036V49.5917H143.409V43.9003C142.351 44.1442 140.968 44.4695 139.504 44.4695C137.633 44.4695 136.005 43.7377 136.005 41.1359V37.3145H137.633V41.1359Z" fill="#808080"/>
<path d="M147.967 49.5917V37.3958H156.917V38.8593H149.676V42.4368H156.347V43.9003H149.676V48.1282H157.079V49.5917H147.967Z" fill="#808080"/>
<path d="M161.146 42.4368H167.492V37.3958H169.119V49.5917H167.492V43.9003H161.146V49.5917H159.519V37.3958H161.146V42.4368Z" fill="#808080"/>
<path d="M188.238 49.9163C183.682 49.9163 182.299 46.0949 182.299 43.4931C182.299 40.81 183.682 37.07 188.238 37.07C192.794 37.07 194.177 40.8913 194.177 43.4931C194.177 46.0949 192.794 49.9163 188.238 49.9163ZM188.238 38.5335C185.553 38.5335 184.008 40.5661 184.008 43.4931C184.008 46.3388 185.553 48.4528 188.238 48.4528C190.923 48.4528 192.469 46.3388 192.469 43.4931C192.469 40.5661 190.923 38.5335 188.238 38.5335Z" fill="#808080"/>
<path d="M79.1374 13.9798L84.263 7.88186H81.9849L77.1034 13.8985L82.229 20.159H84.4257L79.1374 13.9798Z" fill="#808080"/>
<path d="M76.1284 7.88186H74.5012V20.0777H76.1284V7.88186Z" fill="#808080"/>
<path d="M79.1368 43.4121L84.2624 37.3954H81.9844L77.1029 43.4121L82.2285 49.5913H84.4251L79.1368 43.4121Z" fill="#808080"/>
<path d="M76.1283 37.3954H74.5011V49.5913H76.1283V37.3954Z" fill="#808080"/>
<path d="M176.763 43.4121L181.889 37.3954H179.611L174.729 43.3308L179.855 49.5913H181.97L176.763 43.4121Z" fill="#808080"/>
<path d="M173.755 37.3954H172.128V49.5913H173.755V37.3954Z" fill="#808080"/>
<path d="M140.888 13.9798L145.932 7.88184H143.654L138.772 13.8985L143.979 20.159H146.095L140.888 13.9798Z" fill="#808080"/>
<path d="M137.798 7.88184H136.171V20.0777H137.798V7.88184Z" fill="#808080"/>
<path d="M9.18562 0H0V49.9999H9.18562V0Z" fill="#D30535"/>
<path d="M39.9672 7.6173H28.8272L11.5309 28.8086L28.8272 50H39.9672L23.0618 28.8086L39.9672 7.6173Z" fill="#D30535"/>
<path d="M62.6375 7.61719H51.4975L34.2012 28.8085L51.4975 49.9999H62.6375L45.7321 28.8085L62.6375 7.61719Z" fill="#808080"/>
</svg>
