<svg width="14" height="14" viewBox="0 0 14 14" fill="none" xmlns="http://www.w3.org/2000/svg">
<path fill-rule="evenodd" clip-rule="evenodd" d="M7.00004 1.66634C4.05223 1.66634 1.66671 4.05186 1.66671 6.99967C1.66671 7.85381 1.88107 8.65794 2.24574 9.38369C2.41105 9.71268 2.27835 10.1134 1.94936 10.2787C1.62037 10.444 1.21966 10.3113 1.05435 9.98233C0.605679 9.08941 0.333374 8.08153 0.333374 6.99967C0.333374 3.31548 3.31585 0.333008 7.00004 0.333008C10.6842 0.333008 13.6667 3.31548 13.6667 6.99967C13.6667 8.07962 13.396 9.08881 12.9435 9.98276C12.7772 10.3113 12.3761 10.4428 12.0476 10.2765C11.7191 10.1102 11.5876 9.7091 11.7539 9.38059C12.1201 8.65721 12.3334 7.85307 12.3334 6.99967C12.3334 4.05186 9.94785 1.66634 7.00004 1.66634ZM7.94284 4.72353C7.42214 4.20284 6.57792 4.20284 6.05722 4.72353C5.53652 5.24423 5.53652 6.08845 6.05722 6.60915C6.57792 7.12985 7.42214 7.12985 7.94284 6.60915C8.46353 6.08845 8.46353 5.24423 7.94284 4.72353ZM5.11441 3.78072C6.15581 2.73933 7.84425 2.73933 8.88564 3.78072C9.92704 4.82212 9.92704 6.51056 8.88564 7.55196C7.84425 8.59336 6.15581 8.59336 5.11441 7.55196C4.07301 6.51056 4.07301 4.82212 5.11441 3.78072ZM4.03791 11.3845C4.8771 11.9834 5.8922 12.333 6.98471 12.333C8.09071 12.333 9.11867 11.9745 9.96217 11.3622C9.12298 10.7633 8.10788 10.4137 7.01537 10.4137C5.90937 10.4137 4.88141 10.7722 4.03791 11.3845ZM2.53539 10.9109C3.69892 9.78005 5.27845 9.08034 7.01537 9.08034C8.73547 9.08034 10.2977 9.76613 11.4602 10.8753C11.5913 11.0004 11.6659 11.1734 11.6667 11.3546C11.6675 11.5358 11.5946 11.7095 11.4647 11.8357C10.3012 12.9666 8.72163 13.6663 6.98471 13.6663C5.26462 13.6663 3.70238 12.9806 2.53983 11.8713C2.40875 11.7463 2.33422 11.5733 2.33338 11.3921C2.33254 11.2109 2.40547 11.0372 2.53539 10.9109Z" fill="#00638D"/>
</svg>
