<svg width="20" height="20" viewBox="0 0 20 20" fill="none" xmlns="http://www.w3.org/2000/svg">
<path fill-rule="evenodd" clip-rule="evenodd" d="M11.2384 5.24033C9.62061 3.62258 6.99772 3.62258 5.37998 5.24033C3.76223 6.85807 3.76223 9.48096 5.37998 11.0987C6.96845 12.6872 9.52603 12.7159 11.1496 11.1849C11.1673 11.1635 11.1863 11.1429 11.2065 11.1229C11.2275 11.1021 11.2494 11.0827 11.2721 11.0646C12.856 9.4443 12.8448 6.84675 11.2384 5.24033ZM12.9333 11.6868C14.67 9.40966 14.4978 6.14276 12.4169 4.06182C10.1482 1.7932 6.47009 1.7932 4.20147 4.06182C1.93284 6.33044 1.93284 10.0086 4.20147 12.2772C6.25758 14.3333 9.47155 14.5259 11.7446 12.855L16.0735 17.2431C16.3967 17.5707 16.9243 17.5743 17.2519 17.2511C17.5796 16.9279 17.5832 16.4002 17.2599 16.0726L12.9333 11.6868Z" fill="#808185"/>
</svg>
